<svg width="21" height="21" viewBox="0 0 21 21" fill="none" xmlns="http://www.w3.org/2000/svg">
<path d="M18.418 10.0465C18.418 14.6703 14.6697 18.4186 10.0459 18.4186M18.418 10.0465C18.418 5.42273 14.6697 1.67442 10.0459 1.67442M18.418 10.0465C18.418 8.65938 14.6697 7.53488 10.0459 7.53488C5.42214 7.53488 1.67383 8.65938 1.67383 10.0465M18.418 10.0465C18.418 11.4336 14.6697 12.5581 10.0459 12.5581C5.42214 12.5581 1.67383 11.4336 1.67383 10.0465M10.0459 18.4186C5.42214 18.4186 1.67383 14.6703 1.67383 10.0465M10.0459 18.4186C11.8954 18.4186 13.3948 14.6703 13.3948 10.0465C13.3948 5.42273 11.8954 1.67442 10.0459 1.67442M10.0459 18.4186C8.19641 18.4186 6.69708 14.6703 6.69708 10.0465C6.69708 5.42273 8.19641 1.67442 10.0459 1.67442M1.67383 10.0465C1.67383 5.42273 5.42214 1.67442 10.0459 1.67442" stroke="white" stroke-width="1.25581"/>
</svg>
