<svg width="79" height="67" viewBox="0 0 79 67" fill="none" xmlns="http://www.w3.org/2000/svg">
<path d="M78.9994 66.6935V42.0804L65.502 50.0201V59.1508L78.9994 66.6935Z" fill="white"/>
<circle cx="18.2613" cy="18.2613" r="13.8945" stroke="white" stroke-width="8.73367"/>
<circle cx="55.1811" cy="21.4372" r="10.7186" stroke="white" stroke-width="8.73367"/>
<path d="M21.9848 40.1062V43.4992H14.9015V47.1647H20.2016V50.4587H14.9015V57.4925H10.6664V40.1062H21.9848ZM27.2075 40.1062V57.4925H22.9724V40.1062H27.2075ZM33.2734 54.2233H38.8212V57.4925H29.0383V40.1062H33.2734V54.2233ZM59.2924 40.1062V57.4925H55.0573V47.0657L51.1689 57.4925H47.7511L43.838 47.0409V57.4925H39.6029V40.1062H44.6058L49.4848 52.1428L54.3143 40.1062H59.2924Z" fill="white"/>
<path d="M10.1852 63.5537C10.1852 63.0046 10.304 62.5162 10.5416 62.0885C10.7792 61.6555 11.1092 61.3202 11.5317 61.0826C11.9594 60.8397 12.4425 60.7183 12.9811 60.7183C13.6411 60.7183 14.2061 60.8925 14.676 61.241C15.146 61.5895 15.4601 62.0647 15.6185 62.6667H14.1295C14.0186 62.4343 13.8602 62.2575 13.6543 62.136C13.4537 62.0146 13.224 61.9538 12.9652 61.9538C12.5481 61.9538 12.2102 62.099 11.9514 62.3895C11.6927 62.6799 11.5633 63.068 11.5633 63.5537C11.5633 64.0395 11.6927 64.4276 11.9514 64.718C12.2102 65.0084 12.5481 65.1537 12.9652 65.1537C13.224 65.1537 13.4537 65.0929 13.6543 64.9715C13.8602 64.85 14.0186 64.6732 14.1295 64.4408H15.6185C15.4601 65.0428 15.146 65.518 14.676 65.8665C14.2061 66.2097 13.6411 66.3813 12.9811 66.3813C12.4425 66.3813 11.9594 66.2625 11.5317 66.0249C11.1092 65.782 10.7792 65.4467 10.5416 65.019C10.304 64.5913 10.1852 64.1029 10.1852 63.5537ZM18.6815 66.3971C18.1587 66.3971 17.6782 66.2757 17.24 66.0328C16.807 65.7899 16.4612 65.452 16.2024 65.019C15.949 64.5808 15.8222 64.0897 15.8222 63.5458C15.8222 63.002 15.949 62.5135 16.2024 62.0806C16.4612 61.6476 16.807 61.3097 17.24 61.0668C17.6782 60.8239 18.1587 60.7024 18.6815 60.7024C19.2042 60.7024 19.6821 60.8239 20.1151 61.0668C20.5533 61.3097 20.8965 61.6476 21.1447 62.0806C21.3982 62.5135 21.5249 63.002 21.5249 63.5458C21.5249 64.0897 21.3982 64.5808 21.1447 65.019C20.8913 65.452 20.548 65.7899 20.1151 66.0328C19.6821 66.2757 19.2042 66.3971 18.6815 66.3971ZM18.6815 65.1616C19.125 65.1616 19.4788 65.0137 19.7428 64.718C20.0121 64.4223 20.1468 64.0316 20.1468 63.5458C20.1468 63.0548 20.0121 62.664 19.7428 62.3736C19.4788 62.0779 19.125 61.9301 18.6815 61.9301C18.2327 61.9301 17.8736 62.0753 17.6043 62.3657C17.3403 62.6561 17.2083 63.0495 17.2083 63.5458C17.2083 64.0369 17.3403 64.4303 17.6043 64.726C17.8736 65.0164 18.2327 65.1616 18.6815 65.1616ZM28.179 60.7816V66.3417H26.8246V63.0072L25.5812 66.3417H24.4881L23.2367 62.9993V66.3417H21.8824V60.7816H23.4823L25.0426 64.6309L26.587 60.7816H28.179ZM35.0536 60.7816V66.3417H33.6992V63.0072L32.4558 66.3417H31.3627L30.1113 62.9993V66.3417H28.757V60.7816H30.3569L31.9172 64.6309L33.4616 60.7816H35.0536ZM36.9859 60.7816V66.3417H35.6316V60.7816H36.9859ZM39.5832 66.3971C39.1766 66.3971 38.8123 66.3311 38.4902 66.1991C38.1681 66.0671 37.9094 65.8718 37.714 65.613C37.5239 65.3543 37.4236 65.0428 37.413 64.6784H38.8545C38.8756 64.8844 38.9469 65.0428 39.0684 65.1537C39.1898 65.2593 39.3482 65.3121 39.5436 65.3121C39.7442 65.3121 39.9026 65.2672 40.0188 65.1774C40.135 65.0824 40.1931 64.953 40.1931 64.7893C40.1931 64.652 40.1455 64.5385 40.0505 64.4487C39.9607 64.359 39.8472 64.2851 39.7099 64.227C39.5779 64.1689 39.3878 64.1029 39.1396 64.029C38.7806 63.9181 38.4875 63.8072 38.2605 63.6963C38.0334 63.5854 37.8381 63.4217 37.6744 63.2053C37.5107 62.9888 37.4289 62.7063 37.4289 62.3578C37.4289 61.8403 37.6163 61.4364 37.9912 61.146C38.3661 60.8503 38.8545 60.7024 39.4565 60.7024C40.069 60.7024 40.5627 60.8503 40.9376 61.146C41.3125 61.4364 41.5131 61.843 41.5395 62.3657H40.0742C40.0637 62.1862 39.9977 62.0462 39.8762 61.9459C39.7548 61.8403 39.599 61.7875 39.4089 61.7875C39.2453 61.7875 39.1132 61.8324 39.0129 61.9222C38.9126 62.0066 38.8624 62.1307 38.8624 62.2944C38.8624 62.4739 38.9469 62.6139 39.1159 62.7142C39.2849 62.8145 39.5489 62.9228 39.9079 63.0389C40.267 63.1604 40.5574 63.2765 40.7792 63.3874C41.0062 63.4983 41.2016 63.6594 41.3653 63.8706C41.5289 64.0818 41.6108 64.3537 41.6108 64.6864C41.6108 65.0032 41.5289 65.2909 41.3653 65.5497C41.2069 65.8084 40.9745 66.0143 40.6683 66.1675C40.362 66.3206 40.0003 66.3971 39.5832 66.3971ZM44.06 66.3971C43.6535 66.3971 43.2891 66.3311 42.967 66.1991C42.6449 66.0671 42.3862 65.8718 42.1908 65.613C42.0007 65.3543 41.9004 65.0428 41.8899 64.6784H43.3314C43.3525 64.8844 43.4238 65.0428 43.5452 65.1537C43.6667 65.2593 43.8251 65.3121 44.0204 65.3121C44.2211 65.3121 44.3795 65.2672 44.4956 65.1774C44.6118 65.0824 44.6699 64.953 44.6699 64.7893C44.6699 64.652 44.6224 64.5385 44.5273 64.4487C44.4376 64.359 44.324 64.2851 44.1868 64.227C44.0548 64.1689 43.8647 64.1029 43.6165 64.029C43.2574 63.9181 42.9644 63.8072 42.7373 63.6963C42.5103 63.5854 42.3149 63.4217 42.1512 63.2053C41.9875 62.9888 41.9057 62.7063 41.9057 62.3578C41.9057 61.8403 42.0931 61.4364 42.468 61.146C42.8429 60.8503 43.3314 60.7024 43.9333 60.7024C44.5458 60.7024 45.0395 60.8503 45.4144 61.146C45.7893 61.4364 45.99 61.843 46.0164 62.3657H44.5511C44.5405 62.1862 44.4745 62.0462 44.3531 61.9459C44.2316 61.8403 44.0759 61.7875 43.8858 61.7875C43.7221 61.7875 43.5901 61.8324 43.4898 61.9222C43.3894 62.0066 43.3393 62.1307 43.3393 62.2944C43.3393 62.4739 43.4238 62.6139 43.5927 62.7142C43.7617 62.8145 44.0257 62.9228 44.3848 63.0389C44.7438 63.1604 45.0342 63.2765 45.256 63.3874C45.4831 63.4983 45.6784 63.6594 45.8421 63.8706C46.0058 64.0818 46.0876 64.3537 46.0876 64.6864C46.0876 65.0032 46.0058 65.2909 45.8421 65.5497C45.6837 65.8084 45.4514 66.0143 45.1451 66.1675C44.8389 66.3206 44.4772 66.3971 44.06 66.3971ZM47.8795 60.7816V66.3417H46.5251V60.7816H47.8795ZM51.0945 66.3971C50.5718 66.3971 50.0913 66.2757 49.653 66.0328C49.22 65.7899 48.8742 65.452 48.6155 65.019C48.362 64.5808 48.2353 64.0897 48.2353 63.5458C48.2353 63.002 48.362 62.5135 48.6155 62.0806C48.8742 61.6476 49.22 61.3097 49.653 61.0668C50.0913 60.8239 50.5718 60.7024 51.0945 60.7024C51.6173 60.7024 52.0951 60.8239 52.5281 61.0668C52.9664 61.3097 53.3096 61.6476 53.5577 62.0806C53.8112 62.5135 53.9379 63.002 53.9379 63.5458C53.9379 64.0897 53.8112 64.5808 53.5577 65.019C53.3043 65.452 52.9611 65.7899 52.5281 66.0328C52.0951 66.2757 51.6173 66.3971 51.0945 66.3971ZM51.0945 65.1616C51.5381 65.1616 51.8918 65.0137 52.1558 64.718C52.4251 64.4223 52.5598 64.0316 52.5598 63.5458C52.5598 63.0548 52.4251 62.664 52.1558 62.3736C51.8918 62.0779 51.5381 61.9301 51.0945 61.9301C50.6457 61.9301 50.2866 62.0753 50.0174 62.3657C49.7533 62.6561 49.6213 63.0495 49.6213 63.5458C49.6213 64.0369 49.7533 64.4303 50.0174 64.726C50.2866 65.0164 50.6457 65.1616 51.0945 65.1616ZM59.2694 66.3417H57.915L55.6498 62.9122V66.3417H54.2954V60.7816H55.6498L57.915 64.227V60.7816H59.2694V66.3417Z" fill="white"/>
</svg>
