<svg width="83" height="76" viewBox="0 0 83 76" fill="none" xmlns="http://www.w3.org/2000/svg">
<path d="M13.6895 72.377H16.0122V72.7934H14.1331V73.8952H15.9479V74.3117H14.1331V75.9427H13.6895V72.3787V72.377Z" fill="white"/>
<path d="M18.0267 72.377V75.941H17.583V72.377H18.0267Z" fill="white"/>
<path d="M19.5967 72.377H20.0404V75.5263H21.8551V75.9427H19.5967V72.3787V72.377Z" fill="white"/>
<path d="M23.4801 72.377H24.3797L25.2844 75.7588H25.3662L26.2605 72.377H27.1757L27.2296 75.941H26.786L26.732 72.6026H26.6624L25.7629 75.941H24.8912L23.9865 72.6026H23.9221L23.8681 75.941H23.4297L23.4836 72.377H23.4801Z" fill="white"/>
<path d="M33.547 75.9965C32.4752 75.9965 31.7549 75.2573 31.7549 74.1659C31.7549 73.0745 32.4752 72.3249 33.547 72.3249C34.6188 72.3249 35.1494 72.9305 35.1877 73.6645H34.7545C34.7058 73.1457 34.229 72.7414 33.547 72.7414C32.7832 72.7414 32.1933 73.3192 32.1933 74.1677C32.1933 75.0162 32.7832 75.5836 33.547 75.5836C34.2569 75.5836 34.7058 75.1515 34.7545 74.6119H35.1929C35.1286 75.3788 34.5701 76 33.547 76V75.9965Z" fill="white"/>
<path d="M40.414 74.159C40.414 75.24 39.7093 75.9948 38.5888 75.9948C37.4683 75.9948 36.7637 75.2383 36.7637 74.159C36.7637 73.0797 37.4683 72.3232 38.5888 72.3232C39.7093 72.3232 40.414 73.0797 40.414 74.159ZM37.2074 74.159C37.2074 75.0561 37.7537 75.5801 38.5888 75.5801C39.3735 75.5801 39.9703 75.0561 39.9703 74.159C39.9703 73.2619 39.3753 72.7379 38.5888 72.7379C37.7554 72.7379 37.2074 73.2619 37.2074 74.159Z" fill="white"/>
<path d="M42.0378 72.377H42.9373L43.842 75.7588H43.9238L44.8181 72.377H45.7333L45.7873 75.941H45.3436L45.2896 72.6026H45.2201L44.3205 75.941H43.4488L42.5441 72.6026H42.4797L42.4258 75.941H41.9873L42.0412 72.377H42.0378Z" fill="white"/>
<path d="M47.8001 72.377V75.941H47.3564V72.377H47.8001Z" fill="white"/>
<path d="M50.7943 72.7396C50.3019 72.7396 49.9122 72.934 49.9122 73.3556C49.9122 73.6749 50.1123 73.831 50.6917 73.9334L51.1145 74.0098C51.6887 74.1173 52.2089 74.3551 52.2089 74.9988C52.2089 75.6894 51.6243 75.9983 50.85 75.9983C50.0758 75.9983 49.4094 75.6148 49.3711 74.7715H49.8148C49.8583 75.4031 50.3176 75.5818 50.85 75.5818C51.3824 75.5818 51.7652 75.4152 51.7652 74.9988C51.7652 74.6362 51.3372 74.4748 50.9422 74.4054L50.509 74.3238C49.9992 74.2371 49.4685 74.0375 49.4685 73.3626C49.4685 72.6876 50.0584 72.3249 50.7961 72.3249C51.5338 72.3249 52.1236 72.6702 52.1602 73.4216H51.7113C51.673 72.9357 51.2833 72.7414 50.7961 72.7414L50.7943 72.7396Z" fill="white"/>
<path d="M55.2035 72.7396C54.7111 72.7396 54.3214 72.934 54.3214 73.3556C54.3214 73.6749 54.5215 73.831 55.1009 73.9334L55.5237 74.0098C56.0978 74.1173 56.6181 74.3551 56.6181 74.9988C56.6181 75.6894 56.0335 75.9983 55.2592 75.9983C54.4849 75.9983 53.8186 75.6148 53.7803 74.7715H54.2239C54.2674 75.4031 54.7268 75.5818 55.2592 75.5818C55.7916 75.5818 56.1744 75.4152 56.1744 74.9988C56.1744 74.6362 55.7464 74.4748 55.3514 74.4054L54.9182 74.3238C54.4084 74.2371 53.8777 74.0375 53.8777 73.3626C53.8777 72.6876 54.4675 72.3249 55.2053 72.3249C55.943 72.3249 56.5328 72.6702 56.5693 73.4216H56.1204C56.0822 72.9357 55.6924 72.7414 55.2053 72.7414L55.2035 72.7396Z" fill="white"/>
<path d="M58.6312 72.377V75.941H58.1875V72.377H58.6312Z" fill="white"/>
<path d="M63.8505 74.159C63.8505 75.24 63.1459 75.9948 62.0254 75.9948C60.9049 75.9948 60.2002 75.2383 60.2002 74.159C60.2002 73.0797 60.9049 72.3232 62.0254 72.3232C63.1459 72.3232 63.8505 73.0797 63.8505 74.159ZM60.6439 74.159C60.6439 75.0561 61.1902 75.5801 62.0254 75.5801C62.8101 75.5801 63.4068 75.0561 63.4068 74.159C63.4068 73.2619 62.8118 72.7379 62.0254 72.7379C61.1919 72.7379 60.6439 73.2619 60.6439 74.159Z" fill="white"/>
<path d="M65.4219 72.377H66.2553L67.9395 75.7848H67.9935V72.377H68.4371V75.941H67.5498L65.9247 72.5869H65.8655V75.941H65.4219V72.377Z" fill="white"/>
<path d="M6.95615 67.588H2.33496L1.54852 69.3648H0L3.85912 60.7844H5.45635L9.30329 69.3648H7.74259L6.95615 67.588ZM2.88651 66.2884H6.40286L4.64556 62.2315L2.88825 66.2884H2.88651Z" fill="white"/>
<path d="M17.1693 68.0408V69.3647H10.4463V68.6533L15.1058 62.0944H10.8151V60.7826H17.1571V61.4698L12.4733 68.0408H17.1693Z" fill="white"/>
<path d="M24.7171 68.053V69.3647H18.3125V60.7844H24.6423V62.084H19.7375V64.3762H24.4335V65.6515H19.7375V68.0547H24.7154L24.7171 68.053Z" fill="white"/>
<path d="M29.0434 66.4358H27.2983V69.3647H25.8594V60.7844H29.8907C31.735 60.7844 32.9391 61.9122 32.9391 63.6162C32.9391 65.039 32.0917 66.0558 30.7137 66.349L33.3323 69.3647H31.5384L29.0434 66.4358ZM29.8803 62.1083H27.2861V65.124H29.8803C30.8999 65.124 31.5158 64.5601 31.5158 63.6162C31.5158 62.6722 30.9016 62.1083 29.8803 62.1083Z" fill="white"/>
<path d="M41.6778 66.9876C41.6778 68.5076 40.5591 69.3665 38.5808 69.3665H34.4746V60.7861H38.5808C40.3381 60.7861 41.4081 61.6329 41.4081 63.054C41.4081 63.9129 41.0027 64.5861 40.3137 64.9297C41.088 65.2108 41.6778 66.0697 41.6778 66.9893V66.9876ZM35.9013 62.0597V64.3276H38.6295C39.4908 64.3276 39.9936 63.9111 39.9936 63.1997C39.9936 62.4883 39.4768 62.0597 38.6295 62.0597H35.9013ZM40.2528 66.8037C40.2528 66.0315 39.6874 65.5647 38.753 65.5647H35.9013V68.0651H38.7409C39.6752 68.0651 40.2528 67.5862 40.2528 66.8019V66.8037Z" fill="white"/>
<path d="M49.7794 67.5845H45.1582L44.3718 69.3613H42.8232L46.6824 60.7809H48.2796L52.1265 69.3613H50.5658L49.7794 67.5845ZM45.7098 66.2848H49.2261L47.4688 62.228L45.7115 66.2848H45.7098Z" fill="white"/>
<path d="M53.2695 60.7844H54.7084V69.3647H53.2695V60.7844Z" fill="white"/>
<path d="M63.1634 60.7844V65.8476C63.1634 68.0668 61.6758 69.5244 59.5009 69.5244C57.326 69.5244 55.8506 68.1033 55.8506 65.8597H57.2773C57.2773 67.3554 58.1003 68.2004 59.5027 68.2004C60.905 68.2004 61.728 67.2565 61.728 65.7973V62.1066H58.9615V60.7826H63.1652L63.1634 60.7844Z" fill="white"/>
<path d="M71.2638 67.5879H66.6426L65.8561 69.3647H64.3076L68.1667 60.7844H69.764L73.6109 69.3647H72.0502L71.2638 67.5879ZM67.1941 66.2883H70.7105L68.9532 62.2315L67.1959 66.2883H67.1941Z" fill="white"/>
<path d="M82.1292 60.7844V69.3647H80.826L76.1787 63.2362L76.1909 65.969V69.3647H74.752V60.7844H76.0551L80.7024 66.913L80.6903 64.3501V60.7826H82.1292V60.7844Z" fill="white"/>
<path d="M69.0331 25.5988C68.9913 25.0921 68.9339 24.5907 68.8643 24.0927C67.5281 14.5823 61.3827 6.5884 52.9685 2.64265C52.5109 2.42922 52.0464 2.22621 51.5766 2.03708C48.3282 0.72356 44.7788 0 41.0641 0C35.0979 0 29.5615 1.8653 25.0099 5.04064C24.5958 5.33041 24.1887 5.63059 23.792 5.94119C17.2221 11.0703 12.9941 19.0486 12.9941 27.9933C12.9941 28.8002 13.0289 29.5984 13.0968 30.3879C13.1386 30.8945 13.196 31.396 13.2656 31.894C14.6001 41.4044 20.7437 49.3965 29.1596 53.3423C29.6172 53.5574 30.08 53.7605 30.5515 53.9496C33.8 55.2631 37.3494 55.9867 41.0641 55.9867C47.0302 55.9867 52.5666 54.1214 57.12 50.946C57.5341 50.6563 57.9394 50.3561 58.3379 50.0455C64.906 44.9164 69.1358 36.9381 69.1358 27.9933C69.1358 27.1865 69.101 26.3883 69.0331 25.5988ZM51.9002 32.9143C51.9385 32.8327 51.975 32.7494 52.0116 32.6644C52.0394 32.5985 52.069 32.5308 52.0951 32.4631C52.1125 32.4232 52.1282 32.3833 52.1421 32.3434C52.1455 32.3347 52.149 32.326 52.1525 32.3174C52.1838 32.2358 52.2151 32.1542 52.2447 32.071C52.2517 32.0519 52.2586 32.0328 52.2639 32.0154C52.2639 32.0154 52.2656 32.0154 52.2656 32.0137C52.283 31.9634 52.3021 31.9131 52.3195 31.861C52.33 31.8332 52.3369 31.8037 52.3474 31.776C52.3857 31.6632 52.4205 31.5522 52.4552 31.4394C52.4622 31.4185 52.4692 31.3977 52.4761 31.3769C52.4796 31.363 52.4831 31.3509 52.4866 31.337C52.7336 30.5041 52.8885 29.6504 52.9459 28.788C52.9546 28.6458 52.9616 28.5017 52.9668 28.3595C52.9755 28.1478 52.9755 27.9361 52.9685 27.7244C52.9703 27.7105 52.9703 27.6984 52.9685 27.6845V4.18694C60.826 8.1084 66.4824 15.7865 67.5577 24.8458L51.1677 34.2816C51.4409 33.8443 51.6862 33.388 51.9002 32.9143ZM51.1173 31.0594C51.1086 31.0889 51.0999 31.1166 51.0912 31.1461C51.0755 31.1982 51.0581 31.2485 51.0407 31.3005C51.0338 31.3248 51.0251 31.3491 51.0164 31.3734C50.9885 31.4567 50.9607 31.5383 50.9294 31.6181C50.8145 31.9252 50.6858 32.2271 50.5448 32.5204C50.5361 32.5377 50.5292 32.5533 50.5205 32.5707C50.4892 32.6349 50.4578 32.6991 50.4248 32.7633C50.3604 32.8917 50.2908 33.0166 50.2195 33.1416C49.3443 34.6824 48.0898 35.982 46.5813 36.9138C46.5796 36.9138 46.5761 36.9173 46.5726 36.919C46.5622 36.9242 46.5535 36.9311 46.5448 36.9364C46.4352 37.0023 46.3238 37.0682 46.2125 37.1307C46.0907 37.1984 45.9689 37.266 45.8453 37.3285C45.7897 37.358 45.734 37.3858 45.6783 37.4135C45.5826 37.4586 45.4887 37.5055 45.3912 37.5489C45.3129 37.5853 45.2329 37.62 45.1529 37.653C45.1268 37.6651 45.1007 37.6755 45.0746 37.6859C45.0572 37.6929 45.0398 37.7016 45.0224 37.7068C45.0119 37.712 44.9997 37.7172 44.9876 37.7206C44.9493 37.738 44.911 37.7536 44.871 37.7658C44.8345 37.7814 44.7979 37.7935 44.7596 37.8074C44.6935 37.8334 44.6274 37.8577 44.5596 37.8803C44.5456 37.8855 44.5335 37.8907 44.5213 37.8942C44.4447 37.9219 44.3664 37.9479 44.2881 37.9722C44.1246 38.0243 43.9575 38.0746 43.7888 38.118L43.7731 38.1232C43.6757 38.1492 43.5782 38.1735 43.4826 38.1961C43.366 38.2238 43.2494 38.2499 43.1311 38.2724C43.105 38.2776 43.0771 38.2846 43.0493 38.2898C42.9849 38.3019 42.9188 38.3141 42.8527 38.3245C42.7901 38.3366 42.7257 38.347 42.6631 38.3557C42.1411 38.4355 41.6069 38.4772 41.0641 38.4772C40.5212 38.4772 39.9871 38.4355 39.4651 38.3557C39.4059 38.347 39.3451 38.3366 39.2859 38.3262C39.2146 38.3158 39.145 38.3019 39.0754 38.288C39.0493 38.2828 39.0232 38.2776 38.9971 38.2724C38.884 38.2499 38.7709 38.2238 38.6578 38.1978C38.5534 38.1735 38.449 38.1475 38.3446 38.1197C38.1758 38.0746 38.0071 38.0243 37.8418 37.9722C37.7582 37.9479 37.6765 37.9202 37.5947 37.889C37.5129 37.8612 37.4312 37.8317 37.3494 37.8005C37.3181 37.79 37.2885 37.7779 37.2572 37.7658L37.1406 37.7206C37.1301 37.7154 37.118 37.712 37.1075 37.7068L36.9753 37.653C36.9753 37.653 36.9683 37.6495 36.9666 37.6478C36.9196 37.6304 36.8726 37.6096 36.8257 37.587C36.7996 37.5766 36.7735 37.5662 36.7474 37.5541C36.7404 37.5541 36.7352 37.5489 36.73 37.5454L36.4899 37.4326C36.4203 37.3979 36.3507 37.3649 36.2828 37.3285C36.168 37.2712 36.0549 37.2088 35.9418 37.1446C34.5586 36.3724 33.3685 35.2966 32.4602 34.0109C32.375 33.8894 32.2897 33.768 32.2097 33.6413C32.1192 33.499 32.0305 33.355 31.947 33.2092C31.9035 33.1364 31.8617 33.0617 31.8234 32.9871C31.7938 32.9351 31.766 32.883 31.7399 32.831C31.7086 32.7737 31.679 32.7147 31.6512 32.6574C31.6164 32.5932 31.5868 32.5273 31.5555 32.4614C31.552 32.4544 31.5485 32.4492 31.5468 32.4423C31.4876 32.3191 31.4337 32.1959 31.3797 32.071C31.3728 32.0606 31.3693 32.0501 31.3658 32.0397C31.3415 31.979 31.3154 31.9183 31.291 31.8575C31.2875 31.8506 31.2841 31.8419 31.2823 31.835C31.2597 31.7829 31.2406 31.7291 31.2214 31.6771C31.1936 31.6025 31.1675 31.5296 31.1414 31.455C31.1118 31.3734 31.084 31.2919 31.0579 31.2086C31.03 31.127 31.0039 31.0437 30.9813 30.9587C30.9569 30.8841 30.9361 30.8078 30.9169 30.7314C30.9152 30.7227 30.9117 30.7158 30.91 30.7071C30.9082 30.7019 30.9065 30.6967 30.9065 30.6915C30.8752 30.5839 30.8491 30.4763 30.8247 30.3688C30.8038 30.2803 30.7847 30.1935 30.7656 30.1033C30.7638 30.0946 30.7621 30.0859 30.7603 30.079C30.7447 30.0026 30.7308 29.9246 30.7168 29.8465C30.7012 29.7615 30.6855 29.6747 30.6733 29.5879C30.5933 29.0674 30.5515 28.5347 30.5515 27.9933C30.5515 27.452 30.5933 26.9193 30.6733 26.3987C30.6855 26.312 30.7012 26.2252 30.7168 26.1402C30.7308 26.0621 30.7447 25.984 30.7603 25.9077C30.7621 25.9007 30.7638 25.8921 30.7656 25.8834C30.7847 25.7932 30.8038 25.7064 30.8247 25.6179C30.8491 25.5103 30.8752 25.4027 30.9065 25.2952C30.9065 25.29 30.9082 25.2848 30.91 25.2795C30.9117 25.2709 30.9152 25.2639 30.9169 25.2553C30.9361 25.1789 30.9569 25.1026 30.9813 25.0279C31.0039 24.9429 31.03 24.8596 31.0579 24.7781C31.084 24.6948 31.1118 24.6132 31.1414 24.5317C31.1675 24.4571 31.1936 24.3842 31.2214 24.3096C31.2406 24.2575 31.2597 24.2037 31.2823 24.1517C31.2841 24.1448 31.2875 24.1361 31.291 24.1291C31.3154 24.0684 31.3415 24.0077 31.3658 23.9469C31.3693 23.9365 31.3728 23.9261 31.3797 23.9157C31.4337 23.7908 31.4876 23.6676 31.5468 23.5444C31.5485 23.5374 31.552 23.5322 31.5555 23.5253C31.5868 23.4594 31.6164 23.3934 31.6512 23.3292C31.679 23.272 31.7086 23.213 31.7399 23.1557C31.766 23.1037 31.7938 23.0516 31.8234 22.9995C31.8617 22.9249 31.9035 22.8503 31.947 22.7774C32.0305 22.6317 32.1192 22.4877 32.2097 22.3454C33.1684 20.8566 34.4942 19.6247 36.0584 18.7762C36.1314 18.7363 36.2063 18.6964 36.2828 18.6582C36.3315 18.6321 36.382 18.6079 36.4307 18.5836C36.5299 18.535 36.6291 18.4864 36.73 18.4413C36.7352 18.4378 36.7421 18.4343 36.7474 18.4326C36.7735 18.4205 36.7996 18.41 36.8257 18.3996C36.8726 18.3771 36.9196 18.3563 36.9666 18.3389C36.9683 18.3354 36.9718 18.3337 36.9753 18.3337C37.0188 18.3146 37.0623 18.2955 37.1075 18.2799C37.118 18.273 37.1301 18.2695 37.1406 18.266C37.1789 18.2487 37.2171 18.2331 37.2572 18.2209C37.2885 18.2088 37.3181 18.1966 37.3494 18.1862C37.4312 18.155 37.5129 18.1255 37.5947 18.0977C37.6765 18.0665 37.7582 18.0387 37.8418 18.0144C38.0071 17.9624 38.1758 17.9121 38.3446 17.8669C38.449 17.8392 38.5534 17.8132 38.6578 17.7889C38.7709 17.7628 38.884 17.7368 38.9971 17.7142C39.0232 17.7073 39.0493 17.7021 39.0754 17.6986C39.145 17.6848 39.2146 17.6709 39.2859 17.6605C39.3451 17.65 39.4059 17.6396 39.4651 17.631C39.9871 17.5511 40.5212 17.5095 41.0641 17.5095C41.6069 17.5095 42.1411 17.5511 42.6631 17.631C42.7292 17.6396 42.7935 17.6518 42.8579 17.6622C42.9153 17.6726 42.9728 17.683 43.0302 17.6934C43.0789 17.7021 43.1293 17.7125 43.1798 17.7229C43.2685 17.7403 43.3573 17.7594 43.446 17.7819C43.5591 17.8079 43.6722 17.8374 43.7853 17.8669C43.9558 17.9121 44.1228 17.9624 44.2881 18.0144C44.3664 18.0387 44.4447 18.0647 44.5213 18.0925C44.5335 18.096 44.5456 18.1012 44.5596 18.1064C44.6274 18.1289 44.6935 18.1532 44.7596 18.1793C44.7979 18.1932 44.8345 18.2053 44.871 18.2209C44.911 18.2331 44.9493 18.2487 44.9876 18.266C44.9997 18.2695 45.0102 18.2747 45.0224 18.2799C45.0398 18.2868 45.0572 18.2938 45.0746 18.3007C45.1007 18.3111 45.1268 18.3216 45.1529 18.3337C45.2329 18.3667 45.3129 18.4014 45.3912 18.4378C45.4747 18.4742 45.5565 18.5124 45.6383 18.5541C45.7079 18.5888 45.7775 18.6217 45.8453 18.6582C45.9219 18.6964 45.9967 18.7363 46.0698 18.7762C47.8097 19.7184 49.2503 21.136 50.223 22.8521C50.2926 22.9753 50.3621 23.0984 50.4248 23.2234C50.4631 23.2997 50.5013 23.3743 50.5379 23.4507C50.6823 23.7491 50.8128 24.0563 50.9294 24.3686C50.9607 24.4484 50.9885 24.53 51.0164 24.6132C51.0251 24.6375 51.0338 24.6618 51.0407 24.6861C51.0581 24.7364 51.0738 24.7885 51.0912 24.8388C51.0999 24.87 51.1103 24.8995 51.119 24.9308C51.1381 24.995 51.159 25.0592 51.1764 25.1269C51.2008 25.2084 51.2234 25.2917 51.2443 25.3767C51.2913 25.5502 51.3313 25.7255 51.3661 25.899C51.3817 25.9788 51.3974 26.0586 51.4113 26.1402C51.427 26.2252 51.4426 26.312 51.4548 26.3987C51.5348 26.9193 51.5766 27.452 51.5766 27.9933C51.5766 28.5347 51.5348 29.0674 51.4548 29.5879C51.4426 29.6747 51.427 29.7615 51.4113 29.8465C51.3974 29.928 51.3817 30.0079 51.3661 30.0877C51.3313 30.2612 51.2913 30.4364 51.2443 30.61C51.2234 30.695 51.2008 30.7783 51.1764 30.8598C51.1573 30.9275 51.1381 30.9934 51.1173 31.0594ZM41.0641 1.38813C44.7944 1.38813 48.3491 2.15507 51.5766 3.54146V22.4131C51.5209 22.3107 51.4618 22.21 51.4026 22.1094C51.3939 22.0921 51.3852 22.0747 51.3748 22.0574C51.2704 21.8786 51.1625 21.7016 51.0512 21.5299C51.0129 21.4726 50.9729 21.4153 50.9346 21.3598C50.8615 21.2505 50.7884 21.1395 50.7119 21.0336C50.6388 20.933 50.5622 20.8358 50.4874 20.7369C50.3326 20.5356 50.1742 20.3378 50.0072 20.1487C49.9568 20.0932 49.9063 20.0376 49.8576 19.9821C49.8158 19.937 49.7758 19.8936 49.734 19.8502C49.6784 19.7895 49.6209 19.7305 49.5635 19.6732C49.4957 19.6038 49.4261 19.5362 49.3565 19.4685C48.5857 18.7189 47.7158 18.0804 46.7675 17.5668L26.3479 5.81105C30.569 3.01744 35.6286 1.38813 41.0641 1.38813ZM14.3861 27.9933C14.3861 19.2898 18.5966 11.551 25.0952 6.69251L41.4747 16.1231C41.4608 16.1214 41.4469 16.1214 41.4329 16.1231C41.1876 16.1144 40.9405 16.1144 40.6952 16.1231C39.6147 16.1526 38.5412 16.3348 37.506 16.6645C37.499 16.6662 37.492 16.6679 37.4851 16.6697C37.4607 16.6766 37.4364 16.6853 37.412 16.6922C37.3181 16.72 37.2241 16.7512 37.1319 16.7859C37.0797 16.805 37.0275 16.8224 36.9753 16.8432C36.8848 16.8762 36.7943 16.9109 36.7039 16.9456C36.636 16.9699 36.5699 16.9976 36.5038 17.0254C36.3889 17.0705 36.2758 17.1191 36.1645 17.1711C35.7034 17.3759 35.2597 17.6101 34.8335 17.8704L14.4348 29.6174C14.4035 29.0795 14.3861 28.5382 14.3861 27.9933ZM30.0679 23.4385C30.0574 23.4663 30.0452 23.4941 30.0331 23.5236C29.9965 23.6138 29.9617 23.7058 29.9269 23.796C29.9113 23.8359 29.8973 23.8758 29.8834 23.9157C29.8643 23.9678 29.8451 24.0198 29.826 24.0736C29.8208 24.091 29.8138 24.1083 29.8086 24.1257C29.8086 24.1274 29.8069 24.1291 29.8069 24.1309C29.7512 24.2888 29.7007 24.4467 29.6538 24.6063C29.6538 24.6063 29.6532 24.6075 29.652 24.6098C29.652 24.6098 29.6503 24.6185 29.6485 24.6219C29.3545 25.5988 29.1909 26.6069 29.1614 27.6237C29.1544 27.8389 29.1527 28.0523 29.1596 28.2658C29.1579 28.2779 29.1579 28.2883 29.1596 28.3005V51.7997C21.3039 47.8783 15.6475 40.2002 14.5722 31.1409L30.9587 21.7051C30.6177 22.2552 30.3184 22.833 30.0679 23.4385ZM41.0641 54.5985C37.332 54.5985 33.7791 53.8299 30.5515 52.4452V33.5719C30.8595 34.1532 31.2162 34.7049 31.6146 35.2237C31.7764 35.4337 31.9452 35.6384 32.1227 35.838C32.1871 35.9109 32.2514 35.982 32.3176 36.0532C32.3785 36.1174 32.4376 36.1816 32.5002 36.2458C32.5385 36.2857 32.5785 36.3256 32.6168 36.3655C32.6673 36.4158 32.7195 36.4661 32.7717 36.5164C32.8413 36.5841 32.9109 36.65 32.9822 36.716C33.713 37.3927 34.5255 37.9722 35.4042 38.4425L55.7802 50.1756C51.5592 52.9692 46.4995 54.5985 41.0641 54.5985ZM57.033 49.2942L40.6535 39.8636C40.6674 39.8636 40.6813 39.8636 40.6952 39.8636C40.824 39.8688 40.9545 39.8705 41.0832 39.8705C41.1998 39.8705 41.3164 39.8688 41.4329 39.8636C42.5169 39.8341 43.5869 39.6519 44.6239 39.3222C44.6309 39.3222 44.6361 39.3187 44.6431 39.317C44.6674 39.31 44.6918 39.3014 44.7161 39.2944C44.7579 39.2805 44.8014 39.2667 44.8449 39.251C44.8884 39.2372 44.9301 39.2233 44.9736 39.2077C45.0032 39.1973 45.0328 39.1868 45.0606 39.1764C45.092 39.1678 45.1233 39.1574 45.1529 39.1435C45.1929 39.1296 45.2329 39.1157 45.2729 39.1001C45.3095 39.0879 45.346 39.0741 45.3825 39.0567C45.3965 39.0532 45.4104 39.048 45.4243 39.0411C45.4921 39.0151 45.56 38.989 45.6261 38.9595C45.6487 38.9491 45.6714 38.9405 45.694 38.9318C45.7862 38.8953 45.8767 38.8554 45.9654 38.8138C46.4508 38.5986 46.9171 38.3505 47.3643 38.0746L47.3765 38.0659L67.6951 26.3692C67.7264 26.9071 67.7438 27.4485 67.7438 27.9933C67.7438 36.6969 63.5315 44.4374 57.033 49.2942Z" fill="white"/>
<path d="M26.8624 19.0972L24.6144 16.8553L26.0568 15.4152L23.8384 13.1994V19.1128H23.6853H23.5322V10.7493H27.139V11.053H23.8402V12.769L26.4901 15.4152L25.0477 16.8553L27.0799 18.8803V19.3453C26.29 20.1331 25.5001 20.9173 24.7101 21.7051H22.7788L22.6727 21.6635L20.0576 19.1162L22.4169 16.7634L22.6344 16.9768L20.4926 19.1128L22.8432 21.4015H24.5866L26.8624 19.1319" fill="white"/>
<path d="M26.8624 19.0972L24.6144 16.8553L26.0568 15.4152L23.8384 13.1994V19.1128H23.6853H23.5322V10.7493H27.139V11.053H23.8402V12.769L26.4901 15.4152L25.0477 16.8553L27.0799 18.8803V19.3453C26.29 20.1331 25.5001 20.9173 24.7101 21.7051H22.7788L22.6727 21.6635L20.0576 19.1162L22.4169 16.7634L22.6344 16.9768L20.4926 19.1128L22.8432 21.4015H24.5866L26.8624 19.1319" stroke="white" stroke-width="0.612903" stroke-miterlimit="10"/>
<path d="M55.2955 22.1996L59.1824 18.2851V13.0068L55.2468 16.9282L54.9893 16.6697L58.9197 12.7465H55.0084V12.3786H59.1824V11.8824H59.5496V18.2851L63.7358 22.4564L60.7466 25.4374L60.4856 25.1806L63.2155 22.4564L59.3634 18.6183L55.5547 22.4564" fill="white"/>
<path d="M55.2955 22.1996L59.1824 18.2851V13.0068L55.2468 16.9282L54.9893 16.6697L58.9197 12.7465H55.0084V12.3786H59.1824V11.8824H59.5496V18.2851L63.7358 22.4564L60.7466 25.4374L60.4856 25.1806L63.2155 22.4564L59.3634 18.6183L55.5547 22.4564" stroke="white" stroke-width="0.612903" stroke-miterlimit="10"/>
<path d="M38.8837 24.3564L40.6567 23.3344L35.5936 20.4193C33.1559 22.1736 31.7031 24.995 31.7031 27.9933C31.7031 28.153 31.7066 28.3143 31.7153 28.4757L38.8802 24.3512V24.3564H38.8837Z" fill="white"/>
<path d="M38.8873 31.5573L37.6885 30.8667V36.7021C38.7637 37.1168 39.8982 37.3267 41.0622 37.3267C42.9134 37.3267 44.6899 36.794 46.2227 35.7807L38.8873 31.5573Z" fill="white"/>
<path d="M31.7861 29.2357C32.2002 32.3277 34.175 35.0415 36.9937 36.4002V26.2373L31.7861 29.2357Z" fill="white"/>
<path d="M45.7185 30.4607V30.4659L42.0508 32.5776L46.8408 35.3348C49.1183 33.551 50.4232 30.8824 50.4232 27.9916C50.4232 27.9135 50.4232 27.8337 50.4197 27.7521L45.7185 30.459V30.4607Z" fill="white"/>
<path d="M41.0645 18.6599C39.3559 18.6599 37.696 19.1197 36.2432 19.9925L41.3533 22.9353H41.3568L45.0332 25.0505V19.5414C43.7874 18.9584 42.4529 18.6616 41.0627 18.6616L41.0645 18.6599Z" fill="white"/>
<path d="M45.7265 19.9005V28.4601H45.7178V29.6625L50.3668 26.9852C50.0467 24.0129 48.3259 21.3928 45.7265 19.9023V19.9005Z" fill="white"/>
<path d="M43.3819 2.7936L39.9717 6.19451L40.2692 6.49296L43.3819 3.38876L45.4315 5.43278L40.7372 10.1142L43.0618 12.4324L43.3819 12.7517L43.702 12.4324L48.3737 7.77351L43.3819 2.7936ZM43.4045 12.134L43.3819 12.1565L43.3593 12.134L41.3323 10.1125L45.729 5.72775L47.7787 7.77177L43.4045 12.134Z" fill="white"/>
<path d="M40.0537 48.1264L40.6191 47.0194L38.7644 46.9899V46.2923L40.7374 44.3698L40.4382 44.0626L38.7626 45.6937V44.8573L40.7357 42.9348L40.4364 42.6277L38.7609 44.2587V43.2194H38.3294V46.9829L36.6052 46.9552L37.0993 48.109L34.6582 48.5619L34.2598 48.6365L38.5556 52.9605C39.9823 51.5117 41.4073 50.0628 42.834 48.614L40.0502 48.1264H40.0537ZM38.5591 52.3515L35.1402 48.9089L37.4455 48.4786L37.71 48.43L37.2663 47.3907L38.3364 47.408V47.4132H38.6061L39.9249 47.4341L39.4081 48.4474L41.9606 48.8933L38.5591 52.3498V52.3515Z" fill="white"/>
<path d="M57.7272 36.5425V34.5887L54.0681 36.4383L53.6279 36.6604V43.9013H60.9738V36.5407H57.7272V36.5425ZM54.0681 36.9311L57.287 35.3035V41.6178L54.0681 43.2367V36.9311ZM60.5354 43.464H54.5901L57.7289 41.8867V36.9832H60.5371V43.4657L60.5354 43.464Z" fill="white"/>
<path d="M23.1365 35.7894L20.1212 38.7964H25.882L26.4823 38.1614L26.5345 33.9328L27.4323 34.8264L27.1121 35.1457L26.9712 35.0034L26.9312 38.2533L26.8686 38.4043L26.0769 39.2476H19.0303L20.2308 38.0503L19.4165 37.2383L19.7349 36.9207L20.5492 37.7311L21.4644 36.8184L19.4165 34.7761L19.7349 34.4585L21.7846 36.5008L22.8163 35.4701L19.4165 32.0796L19.7349 31.7604L23.1365 35.1526L24.1804 34.1115L22.0107 31.946L22.3291 31.6285L24.5005 33.7922L26.4353 31.8627L26.7537 32.1803L23.3 35.6246L23.1365 35.7894Z" fill="white"/>
</svg>
