<svg width="190" height="72" viewBox="0 0 190 72" fill="none" xmlns="http://www.w3.org/2000/svg">
<g clip-path="url(#clip0_403_653)">
<path d="M22.7649 37.7246L31.5298 46.3529H14L22.7649 37.7246Z" fill="#161616"/>
<path d="M14 29.0957L22.7649 37.724L31.5298 29.0957H14Z" fill="#161616"/>
<path d="M22.7656 37.724L31.5305 46.3522L40.2954 37.724L31.5305 29.0957L22.7656 37.724Z" fill="#161616"/>
<path d="M172.622 33.1855C172.622 33.3109 172.449 33.3659 172.367 33.2701C171.726 32.5249 170.667 31.96 169.217 31.96C166.08 31.96 164.297 34.4928 164.297 37.5595C164.297 40.6066 166.08 43.138 169.217 43.138C170.687 43.138 171.835 42.6238 172.548 41.7363C172.628 41.6377 172.807 41.6912 172.807 41.818V42.7661C172.807 42.8365 172.863 42.8929 172.932 42.8929H174.935C175.006 42.8929 175.062 42.8365 175.062 42.7661V27.5789C175.062 27.5453 175.049 27.5131 175.025 27.4893C175.001 27.4655 174.969 27.4521 174.935 27.4521H172.748C172.714 27.4525 172.682 27.466 172.659 27.4898C172.635 27.5135 172.622 27.5455 172.622 27.5789V33.1855ZM172.724 37.5595C172.724 39.4754 171.597 40.977 169.73 40.977C167.885 40.977 166.737 39.474 166.737 37.5595C166.737 35.6043 167.885 34.1223 169.73 34.1223C171.597 34.1223 172.724 35.6043 172.724 37.5595ZM163.688 32.2417C163.688 32.2101 163.676 32.1796 163.655 32.1564C163.634 32.1331 163.604 32.1188 163.573 32.1163C163.495 32.1104 163.417 32.1066 163.339 32.1051C161.832 32.1051 160.954 32.7094 160.471 33.3011C160.389 33.3997 160.202 33.3461 160.202 33.2165V32.3333C160.202 32.2999 160.189 32.2679 160.165 32.2441C160.142 32.2204 160.11 32.2069 160.076 32.2065H158.072C158.038 32.2069 158.006 32.2204 157.983 32.2441C157.96 32.2679 157.946 32.2999 157.946 32.3333V42.7661C157.946 42.8365 158.003 42.8929 158.072 42.8929H160.261C160.294 42.8925 160.326 42.879 160.35 42.8552C160.373 42.8315 160.386 42.7995 160.386 42.7661V37.3341C160.386 35.2746 161.412 34.3688 163.135 34.3688C163.281 34.3688 163.436 34.3829 163.543 34.3928C163.561 34.3947 163.579 34.3929 163.597 34.3875C163.614 34.3821 163.63 34.3731 163.643 34.3612C163.657 34.3493 163.668 34.3347 163.676 34.3183C163.684 34.3019 163.688 34.2841 163.688 34.266V32.2417ZM153.355 37.8906C153.373 37.888 153.392 37.8892 153.409 37.8943C153.427 37.8994 153.443 37.9082 153.457 37.9201C153.47 37.932 153.481 37.9467 153.489 37.9633C153.497 37.9798 153.501 37.9978 153.501 38.016V38.5484C153.501 39.9895 152.537 41.225 150.568 41.225C149.398 41.225 148.68 40.8334 148.68 39.8247C148.68 39.0837 149.173 38.5287 150.67 38.3005L153.355 37.892V37.8906ZM150.076 43.1394C151.593 43.1394 152.734 42.6971 153.474 41.8293C153.554 41.7335 153.73 41.787 153.736 41.9138C153.765 42.5266 153.853 42.8915 153.87 42.8915H155.995C156.085 42.8915 156.149 42.7985 156.121 42.7126C155.973 42.2449 155.878 41.487 155.878 40.8742V35.9536C155.878 33.5039 154.402 31.96 151.286 31.96C148.146 31.96 146.86 33.6053 146.606 35.424C146.604 35.4414 146.606 35.4592 146.611 35.4759C146.617 35.4927 146.626 35.5082 146.637 35.5213C146.649 35.5345 146.663 35.545 146.679 35.5523C146.695 35.5595 146.713 35.5633 146.73 35.5634H148.862C148.924 35.5634 148.974 35.5183 148.988 35.4578C149.187 34.5323 149.939 33.9786 151.224 33.9786C152.679 33.9786 153.501 34.6365 153.501 35.9339V35.9888C153.501 36.0193 153.49 36.0487 153.47 36.0717C153.45 36.0947 153.422 36.1098 153.392 36.1142L150.424 36.5312C147.615 36.9214 146.344 38.0948 146.344 39.9064C146.344 41.7377 147.43 43.1394 150.076 43.1394ZM139.885 43.1394C143.289 43.1394 145.422 40.5657 145.422 37.5609C145.422 34.5548 143.289 31.96 139.885 31.96C136.502 31.96 134.37 34.5548 134.37 37.5595C134.37 40.5657 136.502 43.138 139.885 43.138V43.1394ZM136.81 37.5609C136.81 35.4803 138.122 34.1223 139.885 34.1223C141.67 34.1223 142.982 35.4803 142.982 37.5595C142.982 39.6191 141.67 40.977 139.885 40.977C138.122 40.977 136.81 39.6191 136.81 37.5595V37.5609ZM125.384 33.2701C125.303 33.3659 125.131 33.3109 125.131 33.1855V27.5789C125.131 27.5453 125.117 27.5131 125.094 27.4893C125.07 27.4655 125.038 27.4521 125.004 27.4521H122.816C122.783 27.4521 122.75 27.4655 122.727 27.4893C122.703 27.5131 122.69 27.5453 122.69 27.5789V42.7647C122.69 42.8351 122.746 42.8915 122.816 42.8915H124.819C124.89 42.8915 124.946 42.8351 124.946 42.7647V41.8068C124.946 41.68 125.121 41.6264 125.2 41.7251C125.928 42.6196 127.078 43.1394 128.534 43.1394C131.691 43.1394 133.476 40.6066 133.476 37.5609C133.476 34.4928 131.691 31.96 128.534 31.96C127.102 31.96 126.03 32.5249 125.384 33.2701ZM125.048 37.5595C125.048 35.6043 126.175 34.1223 128.041 34.1223C129.887 34.1223 131.036 35.6043 131.036 37.5595C131.036 39.4754 129.887 40.977 128.041 40.977C126.176 40.977 125.048 39.474 125.048 37.5595ZM120.617 40.8784C120.617 40.8586 120.612 40.8392 120.603 40.8215C120.594 40.8038 120.581 40.7883 120.566 40.7761C120.55 40.7639 120.532 40.7552 120.513 40.7507C120.493 40.7463 120.473 40.7461 120.454 40.7502C120.313 40.7784 120.096 40.8136 119.859 40.8136C119.018 40.8136 118.671 40.4009 118.671 39.5571V34.2885C118.671 34.2552 118.684 34.2233 118.708 34.1998C118.732 34.1763 118.764 34.1632 118.797 34.1632H120.533C120.603 34.1632 120.66 34.1068 120.66 34.0364V32.3361C120.66 32.3025 120.646 32.2702 120.622 32.2464C120.599 32.2227 120.566 32.2093 120.533 32.2093H118.796C118.779 32.2093 118.763 32.206 118.747 32.1997C118.732 32.1933 118.718 32.184 118.706 32.1722C118.694 32.1604 118.685 32.1464 118.679 32.131C118.672 32.1157 118.669 32.0992 118.669 32.0825V29.5567C118.669 29.5234 118.656 29.4913 118.632 29.4676C118.609 29.4438 118.577 29.4303 118.544 29.43H116.356C116.322 29.43 116.29 29.4433 116.266 29.4671C116.243 29.4909 116.229 29.5231 116.229 29.5567V32.0839C116.229 32.1006 116.226 32.1171 116.22 32.1325C116.213 32.1478 116.204 32.1618 116.192 32.1736C116.18 32.1854 116.166 32.1947 116.151 32.2011C116.136 32.2074 116.119 32.2107 116.102 32.2107H114.736C114.703 32.2107 114.671 32.2239 114.647 32.2474C114.623 32.2708 114.61 32.3027 114.609 32.3361V34.0392C114.609 34.1096 114.666 34.166 114.736 34.166H116.102C116.173 34.166 116.229 34.2223 116.229 34.2914V39.8064C116.229 41.8237 117.173 42.9563 119.347 42.9563C119.95 42.9563 120.353 42.8886 120.524 42.8534C120.551 42.8475 120.575 42.8325 120.592 42.8109C120.609 42.7894 120.618 42.7625 120.617 42.7351V40.8784ZM103.406 37.5595C103.406 40.6474 105.58 43.138 108.717 43.138C111.796 43.138 113.394 41.0447 113.737 39.1655C113.74 39.1477 113.74 39.1294 113.735 39.112C113.73 39.0946 113.722 39.0785 113.71 39.0648C113.698 39.0511 113.684 39.0401 113.667 39.0326C113.651 39.0252 113.633 39.0215 113.615 39.0218H111.358C111.33 39.022 111.302 39.0315 111.28 39.0488C111.258 39.0661 111.241 39.0903 111.234 39.1176C110.918 40.2178 109.972 40.977 108.696 40.977C106.953 40.977 105.846 39.5571 105.846 37.5595C105.846 35.5423 106.953 34.1223 108.696 34.1223C109.972 34.1223 110.918 34.8816 111.234 35.9818C111.25 36.0381 111.3 36.0776 111.358 36.0776H113.615C113.633 36.0779 113.651 36.0741 113.667 36.0667C113.684 36.0593 113.698 36.0483 113.71 36.0346C113.722 36.0209 113.73 36.0047 113.735 35.9873C113.74 35.9699 113.74 35.9517 113.737 35.9339C113.394 34.0547 111.796 31.9614 108.717 31.9614C105.58 31.9614 103.406 34.452 103.406 37.5595ZM99.2967 38.3625C99.2967 40.1121 98.3543 41.039 96.8372 41.039C95.3608 41.039 94.7664 40.0712 94.7664 38.6104V32.3333C94.7664 32.2997 94.753 32.2674 94.7292 32.2436C94.7055 32.2199 94.6732 32.2065 94.6396 32.2065H92.4519C92.4183 32.2065 92.386 32.2199 92.3622 32.2436C92.3385 32.2674 92.3251 32.2997 92.3251 32.3333V38.9401C92.3251 41.4306 93.6591 43.138 96.2413 43.138C97.6753 43.138 98.6544 42.5984 99.2024 41.9293C99.2855 41.8279 99.4827 41.8856 99.4827 42.0167V42.7661C99.4827 42.8365 99.539 42.8929 99.6095 42.8929H101.611C101.682 42.8929 101.738 42.8365 101.738 42.7661V32.3333C101.738 32.2997 101.725 32.2674 101.701 32.2436C101.677 32.2199 101.645 32.2065 101.611 32.2065H99.4235C99.3899 32.2065 99.3576 32.2199 99.3339 32.2436C99.3101 32.2674 99.2967 32.2997 99.2967 32.3333V38.3625ZM88.0131 33.1855C88.0131 33.3109 87.8398 33.3659 87.7581 33.2701C87.1172 32.5249 86.0578 31.96 84.6083 31.96C81.4711 31.96 79.6863 34.4928 79.6863 37.5595C79.6863 40.6066 81.4711 43.138 84.6083 43.138C86.0761 43.138 87.2242 42.6238 87.9384 41.7363C88.0187 41.6377 88.1962 41.6912 88.1962 41.818V42.7661C88.1962 42.8365 88.2526 42.8929 88.323 42.8929H90.3262C90.3966 42.8929 90.4529 42.8365 90.4529 42.7661V27.5789C90.4529 27.5453 90.4396 27.5131 90.4158 27.4893C90.392 27.4655 90.3598 27.4521 90.3262 27.4521H88.1385C88.1048 27.4521 88.0726 27.4655 88.0488 27.4893C88.025 27.5131 88.0117 27.5453 88.0117 27.5789V33.1855H88.0131ZM88.1145 37.5595C88.1145 39.4754 86.9876 40.977 85.121 40.977C83.2756 40.977 82.1261 39.474 82.1261 37.5595C82.1261 35.6043 83.2756 34.1223 85.121 34.1223C86.9861 34.1223 88.1145 35.6043 88.1145 37.5595ZM73.1654 43.1394C76.5702 43.1394 78.7016 40.5657 78.7016 37.5609C78.7016 34.5534 76.5717 31.96 73.1654 31.96C69.7832 31.96 67.6504 34.5548 67.6504 37.5595C67.6504 40.5657 69.7832 43.138 73.1654 43.138V43.1394ZM70.0903 37.5609C70.0903 35.4803 71.4017 34.1223 73.1654 34.1223C74.9502 34.1223 76.2617 35.4803 76.2617 37.5595C76.2617 39.6191 74.9502 40.977 73.1654 40.977C71.4017 40.977 70.0903 39.6191 70.0903 37.5595V37.5609ZM67.3701 32.2417C67.3702 32.2101 67.3583 32.1796 67.3369 32.1564C67.3155 32.1331 67.2861 32.1188 67.2545 32.1163C67.1772 32.1104 67.0997 32.1066 67.0221 32.1051C65.5148 32.1051 64.6358 32.7094 64.1526 33.3011C64.0709 33.3997 63.8849 33.3461 63.8849 33.2165V32.3333C63.8849 32.2997 63.8716 32.2674 63.8478 32.2436C63.824 32.2199 63.7918 32.2065 63.7582 32.2065H61.755C61.7214 32.2065 61.6891 32.2199 61.6653 32.2436C61.6416 32.2674 61.6282 32.2997 61.6282 32.3333V42.7661C61.6282 42.8365 61.6846 42.8929 61.755 42.8929H63.9427C64.0131 42.8929 64.0695 42.8365 64.0695 42.7661V37.3341C64.0695 35.2746 65.0936 34.3688 66.8164 34.3688C66.9644 34.3688 67.1179 34.3829 67.225 34.3928C67.243 34.3947 67.2612 34.3929 67.2784 34.3875C67.2957 34.3821 67.3117 34.3731 67.3253 34.3612C67.3389 34.3493 67.3499 34.3347 67.3577 34.3183C67.3654 34.3019 67.3696 34.2841 67.3701 34.266V32.2417ZM51.7758 41.9223C51.7758 41.7955 51.9505 41.7406 52.0336 41.8378C52.6774 42.5914 53.7494 43.1394 55.1806 43.1394C58.3375 43.1394 60.1223 40.6066 60.1223 37.5609C60.1223 34.4928 58.3375 31.96 55.1806 31.96C53.7226 31.96 52.5731 32.4967 51.8448 33.3828C51.7659 33.48 51.5913 33.425 51.5913 33.2982V32.3333C51.5913 32.2997 51.5779 32.2674 51.5541 32.2436C51.5303 32.2199 51.4981 32.2065 51.4645 32.2065H49.4627C49.4291 32.2065 49.3968 32.2199 49.3731 32.2436C49.3493 32.2674 49.3359 32.2997 49.3359 32.3333V47.0471C49.3359 47.1175 49.3923 47.1739 49.4627 47.1739H51.6504C51.7209 47.1739 51.7772 47.1175 51.7772 47.0471V41.9223H51.7758ZM51.6941 37.5595C51.6941 35.5831 52.821 34.0801 54.6876 34.0801C56.533 34.0801 57.6825 35.5831 57.6825 37.5595C57.6825 39.4754 56.533 40.977 54.6876 40.977C52.8225 40.977 51.6941 39.474 51.6941 37.5595Z" fill="#161616"/>
</g>
<defs>
<clipPath id="clip0_403_653">
<rect width="162" height="33.8087" fill="white" transform="translate(14 19)"/>
</clipPath>
</defs>
</svg>
