<svg width="190" height="72" viewBox="0 0 190 72" fill="none" xmlns="http://www.w3.org/2000/svg">
<g clip-path="url(#clip0_403_661)">
<path d="M57.0231 45.4798C56.9584 45.8344 56.794 46.1633 56.5491 46.4278L48.9649 54.012C48.9338 54.0742 48.8907 54.1297 48.8381 54.1753C48.7856 54.2209 48.7245 54.2557 48.6585 54.2778C48.5925 54.2998 48.5227 54.3085 48.4533 54.3036C48.3839 54.2987 48.3161 54.2801 48.2539 54.249C48.1916 54.2179 48.1361 54.1748 48.0905 54.1222C48.0449 54.0696 48.0101 54.0086 47.9881 53.9426C47.9661 53.8765 47.9573 53.8068 47.9623 53.7374C47.9672 53.668 47.9858 53.6002 48.0169 53.538V36.9476L57.0231 27.9414V45.4798Z" fill="#161616"/>
<path d="M50.862 21.7787C50.862 21.653 50.812 21.5324 50.7231 21.4435C50.6343 21.3546 50.5137 21.3047 50.388 21.3047C50.2623 21.3047 50.1417 21.3546 50.0528 21.4435C49.9639 21.5324 49.914 21.653 49.914 21.7787L39.0117 33.155V45.9532L48.0179 36.947L57.0241 27.9408L50.862 21.7787Z" fill="#161616"/>
<path d="M21 45.4798C21.0647 45.8344 21.2291 46.1633 21.474 46.4278L29.0582 54.012C29.121 54.1377 29.2313 54.2333 29.3646 54.2777C29.4979 54.3222 29.6435 54.3119 29.7692 54.249C29.8949 54.1861 29.9905 54.0759 30.035 53.9426C30.0794 53.8092 30.0691 53.6637 30.0062 53.538V36.9476L21 27.9414V45.4798Z" fill="#161616"/>
<path d="M28.1102 21.7787C28.1102 21.653 28.0602 21.5324 27.9713 21.4435C27.8824 21.3546 27.7619 21.3047 27.6361 21.3047C27.5104 21.3047 27.3899 21.3546 27.301 21.4435C27.2121 21.5324 27.1621 21.653 27.1621 21.7787L21 27.9408L30.0062 36.947L39.0124 45.9532V33.155L28.1102 21.7787Z" fill="#161616"/>
<path d="M68.4023 45.4786V28.8882H72.6684V30.7843C73.1326 29.962 73.8318 29.2972 74.6763 28.8749C75.5209 28.4527 76.4722 28.2922 77.4085 28.4142C78.3044 28.4806 79.1679 28.7774 79.9153 29.2757C80.6628 29.7739 81.2688 30.4569 81.6746 31.2583C83.5707 29.3622 84.9927 28.4142 86.8888 28.4142C90.6808 28.4142 93.0509 30.3103 93.0509 34.5763V45.4786H88.3108V36.4724C88.3108 34.1023 87.8368 33.1543 85.9407 33.1543C84.0447 33.1543 83.0967 34.1023 83.0967 36.4724V45.4786H77.8826V36.4724C77.8826 34.1023 77.4085 33.1543 75.9865 33.1543C74.5645 33.1543 73.1424 34.1023 73.1424 36.4724V45.4786H68.4023ZM98.739 30.7843C99.9947 29.603 101.563 28.807 103.258 28.4907C104.953 28.1745 106.702 28.3513 108.3 29.0002C109.897 29.649 111.274 30.7427 112.268 32.1513C113.262 33.5598 113.831 35.2241 113.907 36.9464C113.941 38.0795 113.749 39.208 113.343 40.266C112.936 41.324 112.322 42.2904 111.537 43.1085C110.706 44.0389 109.681 44.7757 108.535 45.2671C107.388 45.7585 106.148 45.9925 104.901 45.9526C103.729 45.9553 102.57 45.7022 101.506 45.2109C100.442 44.7197 99.4975 44.0023 98.739 43.1085C97.9544 42.2904 97.3407 41.324 96.9338 40.266C96.5269 39.208 96.3349 38.0795 96.369 36.9464C96.3349 35.8133 96.5269 34.6848 96.9338 33.6268C97.3407 32.5688 97.9544 31.6025 98.739 30.7843ZM104.901 41.2125C106.033 41.2125 107.118 40.763 107.918 39.963C108.718 39.1629 109.167 38.0778 109.167 36.9464C109.167 35.8778 108.743 34.853 107.987 34.0974C107.232 33.3418 106.207 32.9173 105.138 32.9173C104.07 32.9173 103.045 33.3418 102.289 34.0974C101.534 34.853 101.109 35.8778 101.109 36.9464C101.103 38.0003 101.486 39.0193 102.187 39.807C102.887 40.5948 103.854 41.0954 104.901 41.2125ZM117.225 45.4786V28.8882H121.966V30.7843C122.914 29.3622 124.336 28.4142 126.706 28.4142C130.024 28.4142 132.394 30.7843 132.394 34.5763V45.4786H127.654V36.4724C127.654 34.1023 127.18 33.1543 125.284 33.1543C123.388 33.1543 121.966 34.1023 121.966 36.4724V45.4786H117.225ZM153.25 30.7843C154.506 29.603 156.074 28.807 157.769 28.4907C159.464 28.1745 161.214 28.3513 162.811 29.0002C164.408 29.649 165.786 30.7427 166.78 32.1513C167.774 33.5598 168.342 35.2241 168.419 36.9464C168.453 38.0795 168.261 39.208 167.854 40.266C167.447 41.324 166.833 42.2904 166.049 43.1085C165.271 43.9789 164.322 44.6804 163.262 45.1696C162.202 45.6588 161.053 45.9253 159.886 45.9526C158.635 46.0273 157.384 45.8091 156.232 45.3154C155.08 44.8217 154.059 44.066 153.25 43.1085C152.466 42.2904 151.852 41.324 151.445 40.266C151.038 39.208 150.846 38.0795 150.88 36.9464C150.846 35.8133 151.038 34.6848 151.445 33.6268C151.852 32.5688 152.466 31.6025 153.25 30.7843ZM159.886 41.2125C160.934 41.0954 161.901 40.5948 162.601 39.807C163.301 39.0193 163.685 38.0003 163.678 36.9464C163.678 35.8778 163.254 34.853 162.498 34.0974C161.743 33.3418 160.718 32.9173 159.649 32.9173C158.581 32.9173 157.556 33.3418 156.8 34.0974C156.045 34.853 155.62 35.8778 155.62 36.9464C155.62 38.0778 156.07 39.1629 156.87 39.963C157.67 40.763 158.755 41.2125 159.886 41.2125ZM136.186 45.4786V42.1605L142.822 33.1543H136.186V28.8882H148.51V32.6803L142.348 41.2125H148.51V45.4786H136.186Z" fill="#161616"/>
</g>
<defs>
<clipPath id="clip0_403_661">
<rect width="148" height="48" fill="white" transform="translate(21 12)"/>
</clipPath>
</defs>
</svg>
