<svg width="190" height="72" viewBox="0 0 190 72" fill="none" xmlns="http://www.w3.org/2000/svg">
<g clip-path="url(#clip0_403_678)">
<path d="M72.7687 33.238H61.106C60.4377 33.238 59.9364 33.9231 60.1703 34.558L62.9774 41.8263C63.1111 42.1437 62.8437 42.4946 62.5095 42.4779L58.9005 42.244C58.7501 42.2273 58.583 42.3108 58.4828 42.4445L55.6924 46.4044C55.542 46.6216 55.2413 46.7052 55.0074 46.5548L50.897 43.7478C50.7466 43.6308 50.5127 43.6308 50.3624 43.7478L44.648 47.6242C44.2804 47.8748 43.7958 47.5239 43.9128 47.1062L45.5001 41.4085C45.567 41.1746 45.45 40.924 45.2161 40.8404L42.1918 39.604C41.8911 39.4703 41.7908 39.1195 42.008 38.8521L44.6981 35.5438C44.8318 35.3767 44.8485 35.1428 44.7148 34.9757L42.4257 31.7175C42.2252 31.4168 42.409 30.999 42.7933 30.9656L46.2854 30.6983C46.5361 30.6816 46.7533 30.4644 46.7366 30.197L46.4692 25.3014C46.4525 24.9505 46.8034 24.6999 47.1376 24.8335L51.4651 26.6214C51.6489 26.7049 51.8828 26.6548 51.9998 26.4877L54.9906 23.1627C55.2246 22.8953 55.659 22.9789 55.7927 23.2963L57.5805 27.9079C57.8144 28.476 58.5329 28.6932 59.0341 28.3089L66.0518 23.0791C66.8538 22.4943 66.3358 21.2245 65.35 21.3581L60.7384 21.9764C60.5212 22.0098 60.304 21.8761 60.2372 21.6756L57.8144 15.4433C57.5471 14.7916 56.6949 14.6413 56.2271 15.1592L50.9472 20.8903C50.7968 21.0407 50.5963 21.0741 50.4125 21.0073L43.445 18.0665C42.8267 17.8159 42.1417 18.2336 42.1083 18.9187L41.8576 26.0867C41.8409 26.3373 41.6571 26.5378 41.4065 26.5545L35.0572 26.9723C34.3053 27.0224 33.921 27.8578 34.322 28.4593L38.5493 34.6749C38.683 34.842 38.6663 35.0927 38.5159 35.2598L34.2385 40.1888C33.8041 40.6734 33.9879 41.442 34.5894 41.6926L39.5184 43.8146C39.7356 43.9148 39.8526 44.1488 39.7858 44.366L36.6445 56.6468C36.4273 57.5157 37.4131 58.184 38.1316 57.6661L49.9446 49.1948C50.095 49.0778 50.3289 49.0611 50.496 49.1948L55.8762 52.9709C56.3273 53.2884 56.9289 53.1547 57.2296 52.7203L60.5881 47.5573C60.6883 47.4069 60.8721 47.3234 61.0559 47.3568L69.1095 48.3259C69.7611 48.4262 70.4127 47.8748 70.1788 47.2733L66.8371 38.6015C66.7368 38.3676 66.8371 38.1169 67.1211 37.9666L73.2365 35.076C74.1221 34.6248 73.8046 33.238 72.7687 33.238Z" fill="#161616"/>
<path d="M156.462 33.255H147.406C147.239 33.255 147.072 33.4054 147.072 33.5892V37.5992C147.072 37.7663 147.223 37.9334 147.406 37.9334H151.283C151.467 37.9334 151.617 38.0838 151.617 38.2676C151.583 40.3227 151.149 44.0488 147.406 44.0488C144.349 44.0488 143.112 40.3562 143.112 36.0119C143.112 30.8656 144.382 27.691 147.223 27.691C149.294 27.691 149.963 29.4454 150.163 30.0803C150.213 30.2307 150.33 30.3143 150.481 30.3143H155.193C155.376 30.3143 155.543 30.1472 155.527 29.9634C155.343 27.3902 153.137 22.8789 147.323 22.8789C143.263 22.8789 139.453 25.3518 138.233 31.4672V23.5974C138.233 23.4971 138.15 23.4303 138.066 23.4303H133.087C132.987 23.4303 132.92 23.5138 132.92 23.5974V37.6661C132.92 37.8332 132.686 37.8833 132.602 37.7329L126.069 23.5305C126.036 23.4637 125.986 23.4303 125.919 23.4303H121.508C121.408 23.4303 121.341 23.5138 121.341 23.5974V31.4839C119.703 26.488 115.259 22.8956 109.478 22.8956C103.028 22.8956 98.2494 27.3568 97.1634 33.2717H88.1407C88.0404 33.2717 87.9903 33.3552 87.9903 33.4388V37.783C87.9903 37.8833 88.0739 37.9501 88.1407 37.9501H92.3513C92.4515 37.9501 92.5017 38.0337 92.5017 38.1005C92.4849 40.1222 92.1341 44.0321 88.2744 44.0321C85.2167 44.0321 83.997 40.3395 83.997 35.9952C83.997 30.8489 85.2668 27.6743 88.1073 27.6743C90.2961 27.6743 90.931 29.6626 91.0814 30.1806C91.0981 30.2641 91.165 30.3143 91.2318 30.3143H96.2444C96.3446 30.3143 96.4115 30.2307 96.3948 30.1472C96.2945 27.6075 94.1224 22.8956 88.1741 22.8956C83.2451 22.8956 78.6836 26.5548 78.6836 35.9618C78.6836 42.4447 81.2233 48.8275 88.2577 48.8275C93.4708 48.8275 96.7958 44.8007 97.531 39.9552C99.1016 45.1181 103.596 48.8275 109.478 48.8275C115.159 48.8275 119.687 45.2184 121.341 40.1891V48.1591C121.341 48.2594 121.424 48.3262 121.508 48.3262H126.487C126.587 48.3262 126.654 48.2427 126.654 48.1591V34.3243C126.654 34.1573 126.888 34.1071 126.972 34.2575L133.505 48.2427C133.538 48.3095 133.588 48.3429 133.655 48.3429H138.066C138.166 48.3429 138.233 48.2594 138.233 48.1925V40.2893C139.202 45.0346 141.943 48.8776 147.39 48.8776C153.321 48.8776 156.813 43.6478 156.813 37.9334V33.656C156.797 33.3887 156.646 33.255 156.462 33.255ZM109.461 43.6311C105.267 43.6311 102.36 40.4063 102.36 35.8615C102.36 31.3001 105.267 28.092 109.461 28.092C113.638 28.092 116.562 31.3168 116.562 35.8615C116.562 40.4063 113.638 43.6311 109.461 43.6311Z" fill="#161616"/>
</g>
<defs>
<clipPath id="clip0_403_678">
<rect width="123" height="48" fill="white" transform="translate(34 12)"/>
</clipPath>
</defs>
</svg>
