<svg width="190" height="72" viewBox="0 0 190 72" fill="none" xmlns="http://www.w3.org/2000/svg">
<path d="M117.647 23.7002C122.047 23.3137 125.127 24.7698 126.117 25.5459L125.148 32.3545C122.267 28.6208 117.647 28.0276 116.459 29.7188C115.271 31.4101 116.24 32.3551 120.859 34.332C124.555 35.9135 125.273 39.0175 125.171 40.3721C125.4 46.3641 120.339 48.3452 117.779 48.5869C112.64 49.2547 109.053 47.3717 107.901 46.3467L108.804 39.3398C110.674 42.0635 113.358 43.4697 115.976 43.3818C118.593 43.2938 119.891 41.4261 117.779 39.7568C115.667 38.0875 110.277 37.6702 109.617 32.8818C108.957 28.0935 112.148 24.1834 117.647 23.7002ZM137.622 23.7451C142.484 23.3717 145.85 24.5799 148.313 28.5117C150.284 31.6572 149.883 36.2658 149.436 38.1768H133.332C133.544 42.5864 136.691 43.4994 138.238 43.4043C140.772 43.4041 142.579 41.237 143.166 40.1533L148.556 42.6133C146.62 46.6326 142.506 48.5435 138.37 48.6973C134.235 48.851 131.792 47.2916 130.494 46.1055C129.196 44.9193 126.402 42.3269 126.996 35.3867C127.59 28.4457 132.76 24.1186 137.622 23.7451ZM104.382 48.3672H97.6279L101.038 24.0518H107.77L104.382 48.3672ZM56.4678 48.3457H51.4297L58.7773 28.1816H49.3184L51.4297 31.8496L48.1299 35.6279H53.4541L52.0459 39.4502L39.7266 39.4277L46.5898 31.3447L42.4326 24.0303H65.3115L56.4678 48.3457ZM75.1445 37.9561L81.1504 24.0303H85.8809L87.9268 37.9561L92.458 24.0303H98.8818L90.0605 48.3457H84.6924L82.3164 32.9922L75.6074 48.3457H70.1289L67.8193 24.0303H74.4189L75.1445 37.9561ZM139.052 28.8848C135.515 28.9728 134.117 31.996 133.86 33.4971H143.408C143.43 31.9227 142.589 28.7969 139.052 28.8848Z" fill="#161616"/>
</svg>
