<svg width="190" height="72" viewBox="0 0 190 72" fill="none" xmlns="http://www.w3.org/2000/svg">
<g clip-path="url(#clip0_403_666)">
<path d="M79.7097 37.6624L77.0326 30.6559C76.9233 30.3694 76.5058 30.3694 76.3964 30.6559L73.7197 37.6628C73.7007 37.7126 73.6944 37.7662 73.7013 37.8188C73.7082 37.8715 73.7282 37.9218 73.7594 37.9654C73.7907 38.009 73.8323 38.0446 73.8808 38.0692C73.9293 38.0938 73.9832 38.1066 74.0379 38.1066H79.3915C79.4462 38.1066 79.5001 38.0937 79.5486 38.0691C79.5971 38.0445 79.6387 38.0089 79.6699 37.9653C79.7012 37.9216 79.7211 37.8713 79.728 37.8186C79.7349 37.7659 79.7285 37.7124 79.7095 37.6626L79.7097 37.6624ZM80.9464 41.6006H72.4833C72.414 41.6006 72.3465 41.6212 72.2896 41.6596C72.2328 41.698 72.1894 41.7523 72.1653 41.8154L70.4991 46.175C70.475 46.238 70.4317 46.2923 70.3748 46.3307C70.318 46.3691 70.2504 46.3897 70.1812 46.3897H66.513C66.4575 46.3897 66.4029 46.3765 66.354 46.3512C66.305 46.326 66.2631 46.2895 66.2321 46.2449C66.201 46.2003 66.1817 46.149 66.1758 46.0954C66.1699 46.0419 66.1775 45.9878 66.1982 45.9378L74.6434 25.5118C74.6687 25.4507 74.7122 25.3985 74.7683 25.3617C74.8245 25.3249 74.8907 25.3053 74.9584 25.3053H78.4708C78.6092 25.3053 78.7338 25.387 78.7856 25.5118L87.2306 45.9376C87.2513 45.9876 87.2591 46.0418 87.2532 46.0953C87.2473 46.1489 87.228 46.2003 87.1969 46.245C87.1659 46.2896 87.124 46.3262 87.0749 46.3515C87.0259 46.3767 86.9713 46.3899 86.9157 46.3899H83.2483C83.179 46.3899 83.1114 46.3693 83.0545 46.3309C82.9977 46.2924 82.9543 46.238 82.9303 46.175L81.2639 41.8154C81.2398 41.7523 81.1964 41.698 81.1396 41.6596C81.0827 41.6212 81.0152 41.6006 80.9459 41.6006H80.9464ZM88.9492 32.4739H92.0865C92.1765 32.4739 92.2628 32.5086 92.3264 32.5703C92.39 32.6321 92.4258 32.7159 92.4258 32.8032V46.0603C92.4258 46.1477 92.39 46.2315 92.3264 46.2932C92.2628 46.355 92.1765 46.3897 92.0865 46.3897H88.9492C88.8592 46.3897 88.7729 46.355 88.7093 46.2932C88.6457 46.2315 88.6099 46.1477 88.6099 46.0603V32.803C88.6099 32.7157 88.6457 32.6319 88.7093 32.5701C88.7729 32.5083 88.8592 32.4736 88.9492 32.4736V32.4739ZM103.868 35.6986C103.868 35.786 103.832 35.8698 103.769 35.9316C103.705 35.9933 103.619 36.028 103.529 36.028H103.434C101.882 36.028 100.745 36.3895 100.021 37.1123C99.2967 37.8352 98.9352 39.0302 98.9352 40.6968V46.0603C98.9352 46.1477 98.8995 46.2315 98.8359 46.2932C98.7723 46.355 98.686 46.3897 98.596 46.3897H95.4894C95.3994 46.3897 95.3131 46.355 95.2495 46.2932C95.1859 46.2315 95.1502 46.1477 95.1502 46.0603V32.803C95.1502 32.7157 95.1859 32.6319 95.2495 32.5701C95.3131 32.5083 95.3994 32.4736 95.4894 32.4736H98.5648C98.6548 32.4736 98.7411 32.5083 98.8047 32.5701C98.8683 32.6319 98.904 32.7157 98.904 32.803V35.4253H98.9662C99.3385 34.341 99.9279 33.5081 100.735 32.9253C101.541 32.3432 102.534 32.0518 103.713 32.0518H103.868V35.6984V35.6986ZM112.446 35.5761C112.356 35.5761 112.27 35.6108 112.206 35.6726C112.143 35.7344 112.107 35.8181 112.107 35.9055V41.4197C112.107 41.982 112.22 42.3836 112.448 42.6245C112.675 42.8654 113.068 42.986 113.627 42.986H113.939C114.029 42.986 114.115 43.0207 114.179 43.0824C114.243 43.1442 114.278 43.228 114.278 43.3153V46.0902C114.278 46.1776 114.243 46.2613 114.179 46.3231C114.115 46.3849 114.029 46.4196 113.939 46.4196H112.603C111.217 46.4196 110.152 46.0733 109.408 45.3805C108.663 44.6877 108.291 43.659 108.291 42.2932V35.9055C108.291 35.8181 108.255 35.7344 108.191 35.6726C108.128 35.6108 108.041 35.5761 107.952 35.5761H105.993C105.903 35.5761 105.817 35.5414 105.753 35.4797C105.69 35.4179 105.654 35.3341 105.654 35.2467V32.803C105.654 32.7157 105.69 32.6319 105.753 32.5701C105.817 32.5083 105.903 32.4736 105.993 32.4736H107.952C108.042 32.4736 108.128 32.4389 108.192 32.3772C108.255 32.3154 108.291 32.2316 108.291 32.1443V27.2307C108.291 27.1433 108.327 27.0595 108.39 26.9977C108.454 26.936 108.54 26.9013 108.63 26.9013H111.768C111.858 26.9013 111.944 26.936 112.007 26.9977C112.071 27.0595 112.107 27.1433 112.107 27.2307V32.1443C112.107 32.2316 112.143 32.3154 112.206 32.3772C112.27 32.4389 112.356 32.4736 112.446 32.4736H114.715C114.805 32.4736 114.891 32.5083 114.955 32.5701C115.018 32.6319 115.054 32.7157 115.054 32.803V35.247C115.054 35.3343 115.018 35.4181 114.955 35.4799C114.891 35.5416 114.805 35.5763 114.715 35.5763H112.446V35.5761ZM126.813 42.2631C127.526 41.5402 127.883 40.5964 127.883 39.4316C127.883 38.2673 127.526 37.3231 126.813 36.6003C126.099 35.8774 125.163 35.516 124.005 35.516C122.846 35.516 121.911 35.8774 121.197 36.6003C120.484 37.3231 120.127 38.2673 120.127 39.4316C120.127 40.5964 120.484 41.5402 121.197 42.2631C121.911 42.986 122.846 43.3474 124.005 43.3474C125.163 43.3474 126.099 42.986 126.813 42.2631ZM119.568 45.9679C118.514 45.3858 117.681 44.5371 117.071 43.4227C116.461 42.3083 116.156 40.9781 116.156 39.4316C116.156 37.8857 116.461 36.555 117.071 35.4406C117.681 34.3263 118.514 33.4782 119.568 32.8955C120.623 32.3131 121.781 32.022 123.043 32.022C124.16 32.022 125.116 32.2328 125.913 32.6544C126.709 33.0759 127.345 33.6686 127.821 34.4317H127.883V32.803C127.883 32.7157 127.918 32.6319 127.982 32.5701C128.046 32.5083 128.132 32.4736 128.222 32.4736H131.328C131.418 32.4736 131.505 32.5083 131.568 32.5701C131.632 32.6319 131.668 32.7157 131.668 32.803V46.0601C131.668 46.1475 131.632 46.2312 131.568 46.293C131.505 46.3548 131.418 46.3895 131.328 46.3895H128.222C128.132 46.3895 128.046 46.3548 127.982 46.293C127.918 46.2312 127.883 46.1475 127.883 46.0601V44.4317H127.821C127.345 45.1952 126.709 45.7872 125.913 46.2088C125.116 46.6304 124.16 46.8412 123.043 46.8412C121.781 46.8412 120.623 46.55 119.568 45.9679ZM144.587 42.2631C145.3 41.5402 145.657 40.5964 145.657 39.4316C145.657 38.2673 145.3 37.3231 144.587 36.6003C143.873 35.8774 142.937 35.516 141.779 35.516C140.621 35.516 139.685 35.8774 138.972 36.6003C138.258 37.3231 137.901 38.2673 137.901 39.4316C137.901 40.5964 138.258 41.5402 138.972 42.2631C139.685 42.986 140.621 43.3474 141.779 43.3474C142.937 43.3474 143.873 42.986 144.587 42.2631ZM139.871 46.2088C139.075 45.7872 138.439 45.1952 137.963 44.4317H137.901V46.0601C137.901 46.1475 137.865 46.2312 137.802 46.293C137.738 46.3548 137.652 46.3895 137.562 46.3895H134.425C134.335 46.3895 134.248 46.3548 134.185 46.293C134.121 46.2312 134.085 46.1475 134.085 46.0601V25.6341C134.085 25.5467 134.121 25.4629 134.185 25.4012C134.248 25.3394 134.335 25.3047 134.425 25.3047H137.562C137.652 25.3047 137.738 25.3394 137.802 25.4012C137.865 25.4629 137.901 25.5467 137.901 25.6341V34.4314H137.963C138.439 33.6684 139.075 33.0759 139.871 32.6544C140.667 32.2325 141.624 32.0217 142.741 32.0217C144.002 32.0217 145.161 32.3129 146.216 32.8952C147.27 33.478 148.103 34.326 148.713 35.4402C149.323 36.5552 149.628 37.8859 149.628 39.4318C149.628 40.9783 149.323 42.3083 148.713 43.4229C148.103 44.5373 147.271 45.386 146.216 45.9679C145.161 46.5502 144.003 46.8416 142.741 46.8416C141.624 46.8416 140.668 46.6308 139.871 46.209L139.871 46.2088ZM154.914 46.3897H151.777C151.687 46.3897 151.601 46.355 151.537 46.2932C151.473 46.2315 151.438 46.1477 151.438 46.0603V25.6347C151.438 25.5474 151.473 25.4636 151.537 25.4018C151.601 25.34 151.687 25.3053 151.777 25.3053H154.914C155.004 25.3053 155.091 25.34 155.154 25.4018C155.218 25.4636 155.254 25.5474 155.254 25.6347V46.0603C155.254 46.1477 155.218 46.2315 155.154 46.2932C155.091 46.355 155.004 46.3897 154.914 46.3897ZM162.315 35.6969C161.795 36.0908 161.443 36.6595 161.262 37.4035C161.212 37.6086 161.377 37.8053 161.594 37.8053H167.564C167.772 37.8053 167.934 37.6253 167.901 37.4268C167.782 36.723 167.471 36.162 166.968 35.7421C166.379 35.2503 165.608 35.0043 164.657 35.0043C163.706 35.0043 162.925 35.2351 162.315 35.6969ZM169.962 33.9648C171.182 35.2604 171.793 37.0928 171.793 39.4619V39.8554C171.793 39.9427 171.757 40.0265 171.693 40.0883C171.63 40.15 171.543 40.1847 171.453 40.1847H161.479C161.429 40.1848 161.38 40.1955 161.335 40.2159C161.29 40.2363 161.25 40.266 161.218 40.3029C161.186 40.3398 161.163 40.3831 161.15 40.4296C161.137 40.4762 161.134 40.525 161.143 40.5725C161.302 41.4526 161.703 42.1518 162.346 42.6698C163.08 43.2626 164.006 43.5584 165.122 43.5584C166.564 43.5584 167.899 43.0121 169.126 41.9192C169.276 41.7857 169.514 41.814 169.63 41.9763L171.155 44.1019C171.203 44.168 171.224 44.2488 171.215 44.3291C171.205 44.4093 171.165 44.4834 171.103 44.5371C170.355 45.1733 169.522 45.7102 168.628 46.1337C167.635 46.6053 166.467 46.8416 165.122 46.8416C163.571 46.8416 162.216 46.5351 161.058 45.9229C159.9 45.3107 159 44.4473 158.359 43.3325C157.718 42.2181 157.398 40.928 157.398 39.4619C157.398 37.9964 157.708 36.7013 158.328 35.5763C158.949 34.4521 159.817 33.5786 160.934 32.9558C162.051 32.3338 163.354 32.0222 164.843 32.0222C167.035 32.0222 168.742 32.6699 169.962 33.9648ZM92.8356 27.5728C92.8356 28.8152 91.7982 29.8224 90.5183 29.8224C89.2382 29.8224 88.2008 28.8152 88.2008 27.5725C88.2008 26.3299 89.2384 25.3227 90.5183 25.3227C91.7982 25.3227 92.8356 26.3299 92.8356 27.5725" fill="#161616"/>
<path d="M35.8671 19.3644L20.9493 25.3575C20.1197 25.6908 20.1283 26.8351 20.9631 27.1563L35.9431 32.9239C37.2593 33.4307 38.725 33.4307 40.0412 32.9239L55.0214 27.1561C55.856 26.8351 55.865 25.691 55.035 25.3577L40.1176 19.3642C38.7567 18.8174 37.2278 18.8174 35.8669 19.3642" fill="#161616"/>
<path d="M39.3203 36.0732V50.4816C39.3203 51.1667 40.0321 51.6361 40.6882 51.3836L57.3805 45.093C57.5667 45.0214 57.7264 44.8971 57.8389 44.7362C57.9514 44.5754 58.0115 44.3854 58.0115 44.191V29.7828C58.0115 29.0975 57.2998 28.6283 56.6436 28.8808L39.9513 35.1714C39.7652 35.2431 39.6055 35.3674 39.493 35.5282C39.3805 35.6891 39.3203 35.879 39.3203 36.0734" fill="#161616"/>
<path d="M35.4233 36.8163L30.4694 39.1386L29.9664 39.3747L19.509 44.2396C18.8463 44.55 18 44.081 18 43.3661V29.8428C18 29.5841 18.1366 29.3608 18.3198 29.1928C18.395 29.1202 18.4802 29.0581 18.5731 29.0084C18.8228 28.8628 19.1792 28.8239 19.4823 28.9403L35.34 35.0408C36.1461 35.3513 36.2094 36.4479 35.4233 36.8165" fill="#161616"/>
<path d="M35.4238 36.8163L30.4699 39.1386L18.3203 29.1926C18.3955 29.12 18.4807 29.058 18.5736 29.0084C18.8233 28.8628 19.1797 28.8239 19.4828 28.9403L35.3406 35.0408C36.1466 35.3513 36.21 36.4479 35.4238 36.8165" fill="#161616"/>
</g>
<defs>
<clipPath id="clip0_403_666">
<rect width="154" height="48" fill="white" transform="translate(18 12)"/>
</clipPath>
</defs>
</svg>
