<svg width="190" height="72" viewBox="0 0 190 72" fill="none" xmlns="http://www.w3.org/2000/svg">
<path d="M57 36.6437C57.0462 36.3806 57.0963 36.1182 57.1391 35.853C57.4763 33.7434 58.4998 32.0261 60.0987 30.6315C61.4146 29.4853 62.881 28.5553 64.3561 27.6374C66.3617 26.3881 68.3084 25.0524 70.1661 23.5909C70.2491 23.5259 70.3126 23.3833 70.3133 23.2769C70.3233 21.9914 70.32 20.7053 70.32 19.4198V19.1225H75.0998V19.395C75.0998 24.7257 75.1072 30.057 75.0958 35.3877C75.0918 37.4304 74.7607 39.4162 73.792 41.2433C72.4902 43.6991 70.4919 45.2155 67.7157 45.6353C65.7342 45.9353 63.7687 45.8476 61.921 45.0415C59.0651 43.7962 57.4288 41.5868 57.0569 38.4695C57.0495 38.4086 57.0194 38.349 57 38.2894V36.6437ZM70.32 29.3192C69.2309 30.2559 68.0569 30.9535 66.8614 31.6251C65.5174 32.3796 64.2303 33.2178 63.0576 34.2295C61.6815 35.4165 61.1202 38.3383 62.9238 39.9277C64.5334 41.3457 67.9378 41.7086 69.5246 38.8672C70.0758 37.8817 70.2906 36.7971 70.3046 35.6823C70.3314 33.6256 70.3167 31.5688 70.3193 29.5127L70.32 29.3192Z" fill="#161616"/>
<path d="M96.9347 53.0007C96.9267 52.9076 96.9126 52.8146 96.9126 52.7222C96.9113 47.3051 96.9039 41.8888 96.916 36.4724C96.92 34.4143 97.2485 32.4138 98.1803 30.5519C99.347 28.2233 101.22 26.7999 103.77 26.3092C105.643 25.949 107.516 26.0025 109.349 26.579C112.384 27.533 114.586 30.27 114.882 33.4187C115.206 36.8795 113.942 39.6385 111.231 41.7709C109.962 42.7678 108.588 43.6001 107.208 44.4276C105.311 45.5651 103.531 46.8686 101.832 48.2847C101.673 48.4159 101.606 48.5484 101.608 48.7587C101.617 50.1734 101.612 51.5867 101.612 53.0007H96.9347ZM101.612 42.6279C101.704 42.5489 101.753 42.5027 101.806 42.4612C102.348 42.0294 102.859 41.55 103.439 41.1791C104.417 40.5544 105.454 40.0208 106.44 39.4069C107.361 38.8331 108.275 38.2372 109.042 37.4559C110.608 35.8625 110.554 33.3953 108.968 31.8849C107.369 30.3617 103.657 30.1167 102.231 33.3096C101.82 34.2309 101.648 35.2083 101.627 36.2059C101.597 37.6019 101.614 38.9991 101.612 40.3958C101.611 41.1228 101.612 41.8493 101.612 42.6279Z" fill="#161616"/>
<path d="M133.323 41.0672C133.254 41.3632 133.198 41.6631 133.113 41.955C132.661 43.4889 131.784 44.6846 130.321 45.3936C129.627 45.7297 128.893 45.9051 128.117 45.9045C124.383 45.9011 120.648 45.9025 116.915 45.9025H116.588V41.1703H116.875C120.558 41.1703 124.242 41.171 127.924 41.1703C128.364 41.1703 128.524 41.0063 128.6 40.5751C128.754 39.7081 128.197 39.0741 127.431 38.7012C126.835 38.4113 126.191 38.3195 125.536 38.3155C124.067 38.3075 122.613 38.187 121.21 37.7183C119.583 37.176 118.2 36.2842 117.262 34.8099C116.634 33.8224 116.448 32.7077 116.503 31.5608C116.618 29.1345 117.942 27.5497 120.091 26.595C120.769 26.293 121.514 26.2448 122.255 26.2448C125.519 26.2468 128.781 26.2455 132.045 26.2462C132.086 26.2462 132.128 26.2509 132.185 26.2542V30.9348H131.888C128.71 30.9348 125.533 30.9348 122.356 30.9341C122.008 30.9341 121.668 30.9421 121.447 31.2823C121.123 31.779 121.28 32.4345 121.818 32.7753C122.401 33.1435 123.053 33.3337 123.729 33.3959C124.639 33.481 125.557 33.4789 126.467 33.5633C128.478 33.7514 130.282 34.423 131.675 35.9568C132.543 36.9102 133.076 38.0363 133.269 39.3164C133.277 39.3707 133.306 39.4216 133.324 39.4731L133.323 41.0672Z" fill="#161616"/>
<path d="M92.4631 19.0007C92.6036 19.0495 92.7475 19.0911 92.8833 19.1493C94.6841 19.9219 94.9731 21.6707 93.9195 22.9006C93.2131 23.7254 92.0062 23.9517 91.0683 23.4543C90.1023 22.9434 89.5518 21.8019 89.8501 20.7883C90.101 19.938 90.7077 19.3903 91.5433 19.1004C91.6436 19.0656 91.7447 19.0335 91.8457 19L92.4631 19.0007Z" fill="#161616"/>
<path d="M82.1239 45.8925H77.4116V45.6093C77.4116 42.3521 77.3868 39.0955 77.4183 35.8384C77.4524 32.3642 78.9034 29.6286 81.8416 27.7399C83.0698 26.9505 84.4606 26.5796 85.8909 26.36C86.3531 26.2897 86.8234 26.267 87.3125 26.2201V30.813C86.5411 30.8438 85.8059 31.0172 85.1028 31.3238C83.1153 32.1895 82.1319 33.7167 82.1259 35.8738C82.1185 39.1143 82.1239 42.3534 82.1239 45.5939V45.8925Z" fill="#161616"/>
<path d="M94.5069 26.2656H89.7993V45.8951H94.5069V26.2656Z" fill="#161616"/>
</svg>
