<svg width="190" height="72" viewBox="0 0 190 72" fill="none" xmlns="http://www.w3.org/2000/svg">
<g clip-path="url(#clip0_403_663)">
<path d="M43.635 18H29V53L43.635 18Z" fill="#161616"/>
<path d="M53.9316 18H68.5476V53L53.9316 18Z" fill="#161616"/>
<path d="M48.7842 30.8994L58.0991 52.9997H51.9876L49.2037 45.9634H42.3867L48.7842 30.8994Z" fill="#161616"/>
<path d="M92.4246 40.2579L94.1502 45.2061C94.2074 45.3301 94.2932 45.3873 94.4458 45.3873H97.7637C97.9448 45.3873 97.9734 45.3015 97.9448 45.1203L91.0898 26.0806C91.0612 25.928 91.0326 25.8994 90.88 25.8994H86.7612C86.6468 25.8994 86.5801 25.9852 86.5801 26.1092C86.5229 27.1103 86.4371 27.4154 86.3131 27.7109L80.2017 45.0917C80.1731 45.3015 80.2399 45.3873 80.4115 45.3873H83.3766C83.5578 45.3873 83.6436 45.3301 83.7103 45.1489L85.3406 40.2579H92.4246ZM86.2845 37.0258C87.1807 34.3181 88.363 30.8477 88.8397 28.8645H88.8683C89.4594 30.943 90.8514 35.0618 91.4807 37.0258H86.2845Z" fill="#161616"/>
<path d="M106.757 45.6823C108.54 45.6823 110.437 45.3582 112.363 44.5287C112.516 44.4715 112.544 44.4048 112.544 44.2617C112.487 43.7278 112.421 42.9556 112.421 42.3644V24.4402C112.421 24.3258 112.421 24.2686 112.278 24.2686H109.045C108.921 24.2686 108.864 24.3258 108.864 24.4783V30.5516C108.359 30.4944 108.006 30.4658 107.587 30.4658C102.371 30.4658 99.168 33.9076 99.168 38.2075C99.168 43.1939 102.457 45.6823 106.757 45.6823ZM108.864 42.3644C108.33 42.5361 107.739 42.6028 107.139 42.6028C104.774 42.6028 102.839 41.268 102.839 38.0264C102.839 35.1566 104.831 33.4595 107.472 33.4595C108.006 33.4595 108.473 33.5167 108.864 33.6693V42.3644Z" fill="#161616"/>
<path d="M122.854 30.4658C118.402 30.4658 115.646 33.8791 115.646 38.0932C115.646 41.8592 117.839 45.6824 122.788 45.6824C126.973 45.6824 129.91 42.6028 129.91 37.9978C129.91 33.9363 127.421 30.4658 122.854 30.4658ZM122.673 33.4596C125.19 33.4596 126.258 35.6238 126.258 38.0932C126.258 41.1441 124.685 42.66 122.854 42.66C120.595 42.66 119.26 40.7627 119.26 38.0264C119.26 35.2138 120.681 33.4596 122.673 33.4596Z" fill="#161616"/>
<path d="M133.251 24.2686C133.127 24.2686 133.041 24.3258 133.041 24.4783V44.7671C133.041 44.8529 133.127 45.0054 133.251 45.034C134.671 45.4726 136.159 45.6823 137.694 45.6823C142.089 45.6823 146.36 42.9556 146.36 37.4639C146.36 33.4881 143.633 30.4658 139.362 30.4658C138.38 30.4658 137.465 30.6183 136.664 30.8853L136.626 24.5069C136.626 24.2972 136.569 24.2686 136.359 24.2686H133.251ZM142.709 37.8262C142.709 41.1155 140.459 42.66 138.027 42.66C137.522 42.66 137.074 42.6314 136.664 42.5075V33.8504C137.131 33.6693 137.694 33.5167 138.733 33.5167C141.078 33.5167 142.709 35.004 142.709 37.8262Z" fill="#161616"/>
<path d="M158.424 38.894C159.873 38.894 161.065 38.8654 161.475 38.7701C161.628 38.7415 161.685 38.6843 161.714 38.5603C161.799 38.2362 161.837 37.5593 161.837 36.7298C161.837 33.9077 160.14 30.4658 155.755 30.4658C151.274 30.4658 148.785 34.1174 148.785 38.2362C148.785 41.8878 150.711 45.6824 156.107 45.6824C158.129 45.6824 159.435 45.3582 160.56 44.8243C160.674 44.7671 160.731 44.6718 160.731 44.5001V42.0308C160.731 41.8878 160.646 41.8592 160.56 41.9164C159.435 42.3931 158.214 42.6314 156.88 42.6314C153.857 42.6314 152.484 40.963 152.399 38.894H158.424ZM152.399 36.3389C152.637 34.8897 153.552 33.3165 155.602 33.3165C157.862 33.3165 158.453 35.2138 158.453 36.0719C158.453 36.1005 158.453 36.2245 158.453 36.3103C158.329 36.3389 157.947 36.3389 156.822 36.3389H152.399Z" fill="#161616"/>
</g>
<defs>
<clipPath id="clip0_403_663">
<rect width="133" height="48" fill="white" transform="translate(29 12)"/>
</clipPath>
</defs>
</svg>
