<svg width="190" height="72" viewBox="0 0 190 72" fill="none" xmlns="http://www.w3.org/2000/svg">
<g clip-path="url(#clip0_403_657)">
<path d="M21.7227 34.5574C21.6654 34.4824 21.5896 34.4234 21.5029 34.3862C21.4161 34.349 21.3211 34.3348 21.2273 34.345C21.1334 34.3552 21.0437 34.3895 20.9669 34.4444C20.8902 34.4994 20.8289 34.5733 20.789 34.6589L16.0577 44.1184C16.0146 44.2046 15.9943 44.3004 15.9986 44.3967C16.003 44.493 16.0318 44.5866 16.0825 44.6686C16.1332 44.7506 16.204 44.8182 16.2881 44.8652C16.3723 44.9121 16.4671 44.9368 16.5635 44.9368H23.1515C23.257 44.9392 23.361 44.911 23.4508 44.8555C23.5405 44.8 23.6123 44.7196 23.6573 44.6242C25.0784 41.6876 24.2171 37.2225 21.7227 34.5574Z" fill="#161616"/>
<path d="M25.1931 25.9539C24.0142 27.7678 23.3272 29.8571 23.1995 32.0167C23.0718 34.1763 23.5078 36.332 24.4647 38.2722L27.6408 44.6245C27.6878 44.7185 27.76 44.7975 27.8493 44.8527C27.9386 44.9079 28.0416 44.9371 28.1466 44.9371H34.7334C34.8298 44.9371 34.9246 44.9125 35.0088 44.8656C35.0929 44.8186 35.1637 44.7509 35.2144 44.6689C35.2651 44.5869 35.2939 44.4934 35.2983 44.3971C35.3026 44.3008 35.2823 44.205 35.2392 44.1188C35.2392 44.1188 26.3776 26.3936 26.1549 25.9503C26.1109 25.8601 26.0423 25.7841 25.9571 25.731C25.8718 25.678 25.7733 25.65 25.6729 25.6504C25.5725 25.6508 25.4742 25.6794 25.3894 25.7331C25.3045 25.7868 25.2365 25.8633 25.1931 25.9539Z" fill="#161616"/>
<path d="M102.453 33.5392C102.453 35.8816 103.54 37.7414 107.79 38.5624C110.326 39.0948 110.857 39.5041 110.857 40.3494C110.857 41.1704 110.325 41.7019 108.539 41.7019C106.38 41.6631 104.265 41.0906 102.381 40.0356V43.8509C103.661 44.4787 105.351 45.1791 108.491 45.1791C112.934 45.1791 114.697 43.1975 114.697 40.2526L102.453 33.5392ZM114.697 40.2526C114.697 37.4755 113.224 36.1712 109.07 35.278C106.776 34.7708 106.221 34.2638 106.221 33.5392C106.221 32.6224 107.042 32.2352 108.563 32.2352C110.399 32.2352 112.21 32.7906 113.924 33.5635V29.9168C112.28 29.1685 110.49 28.7972 108.684 28.8301C104.578 28.8301 102.453 30.6171 102.453 33.5392" fill="#161616"/>
<path d="M159.541 29.0703V44.9366H162.922V32.8377L164.347 36.0493L169.128 44.9366H173.379V29.0703H169.998V39.3098L168.718 36.3392L164.878 29.0703H159.541Z" fill="#161616"/>
<path d="M138.037 29.0703H134.342V44.9366H138.037V29.0703Z" fill="#161616"/>
<path d="M130.08 40.2526C130.08 37.4755 128.607 36.1712 124.453 35.278C122.159 34.7708 121.604 34.2638 121.604 33.5392C121.604 32.6224 122.425 32.2352 123.946 32.2352C125.781 32.2352 127.593 32.7906 129.307 33.5635V29.9168C127.663 29.1685 125.873 28.7972 124.067 28.8301C119.961 28.8301 117.836 30.6171 117.836 33.5392C117.836 35.8816 118.923 37.7414 123.173 38.5624C125.709 39.0948 126.24 39.5041 126.24 40.3494C126.24 41.1704 125.708 41.7019 123.922 41.7019C121.763 41.6631 119.647 41.0906 117.764 40.0356V43.8509C119.044 44.4787 120.734 45.1791 123.873 45.1791C128.317 45.1791 130.08 43.1975 130.08 40.2526Z" fill="#161616"/>
<path d="M73.75 29.0703V44.9366H81.3445L82.5403 41.5073H77.4689V29.0703H73.75Z" fill="#161616"/>
<path d="M58.7461 29.0703V32.4993H62.8515V44.9366H66.5704V32.4993H70.9657V29.0703H58.7461Z" fill="#161616"/>
<path d="M53.3538 29.0703H48.48L42.9473 44.9366H47.1725L47.9568 42.2644C49.8886 42.8316 51.9426 42.8316 53.8744 42.2644L54.6587 44.9366H58.8848L53.3538 29.0703ZM50.9168 39.4032C50.2285 39.4032 49.5438 39.3047 48.8834 39.1107L50.9168 32.1867L52.9501 39.1131C52.2897 39.3063 51.6049 39.404 50.9168 39.4032Z" fill="#161616"/>
<path d="M94.4375 29.0703H89.564L84.0312 44.9366H88.2574L89.0417 42.2644C90.9734 42.8316 93.0275 42.8316 94.9593 42.2644L95.7436 44.9366H99.9697L94.4375 29.0703ZM92.0008 39.4032C91.3125 39.4032 90.6278 39.3047 89.9674 39.1107L92.0008 32.1867L94.0341 39.1131C93.3736 39.3063 92.6889 39.404 92.0008 39.4032Z" fill="#161616"/>
<path d="M151.352 29.0703H146.478L140.945 44.9366H145.171L145.956 42.2644C147.888 42.8316 149.942 42.8316 151.873 42.2644L152.658 44.9366H156.884L151.352 29.0703ZM148.913 39.4032C148.225 39.4032 147.54 39.3047 146.88 39.1107L148.913 32.1867L150.947 39.1131C150.286 39.3063 149.602 39.404 148.913 39.4032Z" fill="#161616"/>
</g>
<defs>
<clipPath id="clip0_403_657">
<rect width="158" height="42.6067" fill="white" transform="translate(16 15)"/>
</clipPath>
</defs>
</svg>
