<svg width="100" height="48" viewBox="0 0 100 48" fill="none" xmlns="http://www.w3.org/2000/svg">
<path d="M64.433 34.9821C64.2865 34.9078 63.1423 34.2298 61.4416 34.2298C59.143 34.2298 57.5482 35.8291 57.5482 37.9881C57.5482 40.0818 59.0743 41.7498 61.4416 41.7498C63.113 41.7498 64.2764 41.0853 64.433 41.0019V44.7838C63.987 44.9077 62.7717 45.285 61.1927 45.285C57.1934 45.285 53.6829 42.528 53.6829 37.987C53.6829 33.7804 56.859 30.6945 61.1927 30.6945C62.8596 30.6945 64.0962 31.1 64.433 31.2002V34.9821ZM27.3197 34.9821C27.1767 34.9078 26.0336 34.2298 24.3329 34.2298C22.0298 34.2298 20.4361 35.8291 20.4361 37.9881C20.4361 40.0818 21.9633 41.7498 24.3329 41.7498C26.0043 41.7498 27.1666 41.0853 27.3197 41.0019V44.7838C26.8783 44.9077 25.6642 45.285 24.0762 45.285C20.0802 45.285 16.5742 42.528 16.5742 37.987C16.5742 33.7804 19.7502 30.6945 24.0773 30.6945C25.7509 30.6945 26.9852 31.1 27.3197 31.2002V34.9821ZM75.6177 34.2827C73.5083 34.2827 71.9416 35.9428 71.9416 37.9881C71.9416 40.0378 73.5083 41.6968 75.6177 41.6968C77.7249 41.6968 79.296 40.0378 79.296 37.9881C79.296 35.9428 77.7249 34.2827 75.6177 34.2827ZM83.0633 37.9881C83.0633 42.0189 79.9515 45.285 75.6188 45.285C71.2839 45.285 68.1766 42.0189 68.1766 37.987C68.1766 33.964 71.285 30.6945 75.6177 30.6945C79.9515 30.6945 83.0633 33.964 83.0633 37.9881ZM49.2466 34.1476C49.1937 34.1307 47.6969 33.7174 46.4671 33.7174C45.0424 33.7174 44.2675 34.1949 44.2675 34.8718C44.2675 35.73 45.3127 36.0295 45.8972 36.2142L46.8781 36.5262C49.1869 37.2605 50.2377 38.8407 50.2377 40.5571C50.2377 44.0968 47.1248 45.2861 44.4038 45.2861C42.5128 45.2861 40.7412 44.937 40.5667 44.901V41.6574C40.8798 41.7362 42.3709 42.1822 43.924 42.1822C45.6933 42.1822 46.5065 41.6642 46.5065 40.8668C46.5065 40.1528 45.8026 39.7405 44.9207 39.4635C44.7067 39.3914 44.3824 39.29 44.1616 39.2179C42.1817 38.5917 40.5306 37.4272 40.5306 35.0959C40.5306 32.4605 42.5038 30.6911 45.7812 30.6911C47.5122 30.6911 49.1408 31.1112 49.2466 31.1394V34.1464V34.1476Z" fill="#161616"/>
<path d="M12.8042 15.8023C12.8042 14.8315 12.0113 14.0442 11.0394 14.0442C10.0674 14.0442 9.27344 14.8314 9.27344 15.8011V19.5009C9.28507 19.9614 9.47617 20.3991 9.80598 20.7207C10.1358 21.0423 10.5782 21.2222 11.0388 21.2222C11.4995 21.2222 11.9419 21.0423 12.2717 20.7207C12.6015 20.3991 12.7926 19.9614 12.8042 19.5009V15.8023ZM22.5001 10.9482C22.5001 10.48 22.3141 10.0309 21.983 9.69986C21.6519 9.36878 21.2029 9.18279 20.7347 9.18279C20.2665 9.18279 19.8174 9.36878 19.4864 9.69986C19.1553 10.0309 18.9693 10.48 18.9693 10.9482V19.5009C18.9693 19.9691 19.1553 20.4182 19.4864 20.7492C19.8174 21.0803 20.2665 21.2663 20.7347 21.2663C21.2029 21.2663 21.6519 21.0803 21.983 20.7492C22.3141 20.4182 22.5001 19.9691 22.5001 19.5009V10.947V10.9482ZM32.1971 4.30557C32.1971 3.33475 31.4042 2.54636 30.4322 2.54636C29.4592 2.54636 28.6663 3.33475 28.6663 4.30557V23.0159C28.6779 23.4764 28.869 23.9141 29.1988 24.2357C29.5286 24.5573 29.971 24.7373 30.4317 24.7373C30.8923 24.7373 31.3347 24.5573 31.6645 24.2357C31.9943 23.9141 32.1854 23.4764 32.1971 23.0159V4.30557ZM41.8929 10.9482C41.8929 10.48 41.7069 10.0309 41.3759 9.69986C41.0448 9.36878 40.5957 9.18279 40.1275 9.18279C39.6593 9.18279 39.2103 9.36878 38.8792 9.69986C38.5481 10.0309 38.3621 10.48 38.3621 10.9482V19.5009C38.3621 19.9691 38.5481 20.4182 38.8792 20.7492C39.2103 21.0803 39.6593 21.2663 40.1275 21.2663C40.5957 21.2663 41.0448 21.0803 41.3759 20.7492C41.7069 20.4182 41.8929 19.9691 41.8929 19.5009V10.947V10.9482ZM51.5787 15.8023C51.579 15.3365 51.3943 14.8897 51.0652 14.56C50.7362 14.2304 50.2897 14.0448 49.824 14.0442C49.3572 14.0439 48.9093 14.2287 48.5785 14.558C48.2477 14.8874 48.0609 15.3344 48.0591 15.8011V19.5009C48.0591 19.9676 48.2445 20.4152 48.5746 20.7452C48.9046 21.0753 49.3522 21.2607 49.8189 21.2607C50.2856 21.2607 50.7332 21.0753 51.0632 20.7452C51.3932 20.4152 51.5787 19.9676 51.5787 19.5009V15.8023ZM61.279 10.9482C61.2674 10.4892 61.0769 10.0528 60.7482 9.7323C60.4194 9.41176 59.9784 9.23235 59.5193 9.23235C59.0601 9.23235 58.6191 9.41176 58.2904 9.7323C57.9616 10.0528 57.7711 10.4892 57.7595 10.9482V19.5009C57.7595 19.9676 57.9449 20.4152 58.2749 20.7452C58.6049 21.0753 59.0525 21.2607 59.5193 21.2607C59.986 21.2607 60.4336 21.0753 60.7636 20.7452C61.0936 20.4152 61.279 19.9676 61.279 19.5009V10.947V10.9482ZM70.9816 4.30557C70.9816 3.83886 70.7962 3.39125 70.4662 3.06123C70.1362 2.73121 69.6886 2.54581 69.2219 2.54581C68.7552 2.54581 68.3075 2.73121 67.9775 3.06123C67.6475 3.39125 67.4621 3.83886 67.4621 4.30557V23.0159C67.4517 23.2535 67.4895 23.4907 67.5732 23.7133C67.657 23.9358 67.7849 24.1392 67.9494 24.311C68.1138 24.4828 68.3113 24.6195 68.53 24.7129C68.7487 24.8063 68.9841 24.8545 69.2219 24.8545C69.4597 24.8545 69.695 24.8063 69.9137 24.7129C70.1324 24.6195 70.3299 24.4828 70.4944 24.311C70.6588 24.1392 70.7868 23.9358 70.8705 23.7133C70.9542 23.4907 70.992 23.2535 70.9816 23.0159V4.30557ZM80.682 10.9482C80.682 9.97624 79.8948 9.18671 78.9003 9.18671C78.4336 9.18701 77.9861 9.37258 77.6563 9.70268C77.3264 10.0328 77.1411 10.4803 77.1411 10.947V19.5009C77.1411 20.4774 77.9295 21.2646 78.9003 21.2646C79.8948 21.2646 80.682 20.4774 80.682 19.5009V10.947V10.9482ZM90.3643 15.8023C90.3643 15.3351 90.1788 14.8871 89.8484 14.5567C89.5181 14.2264 89.0701 14.0408 88.6029 14.0408C88.1357 14.0408 87.6877 14.2264 87.3574 14.5567C87.027 14.8871 86.8414 15.3351 86.8414 15.8023V19.5009C86.8414 20.4774 87.6309 21.2657 88.6029 21.2657C89.5737 21.2657 90.3632 20.4774 90.3632 19.5009V15.8023H90.3643Z" fill="#161616"/>
<path d="M35.7665 45.0358H32.2109V30.9453H35.7665V45.0358Z" fill="#161616"/>
</svg>
