<svg width="190" height="72" viewBox="0 0 190 72" fill="none" xmlns="http://www.w3.org/2000/svg">
<g clip-path="url(#clip0_403_684)">
<path d="M177.801 32.336C178.789 33.3841 179.286 34.805 179.286 36.6053V46.0761H175.621V37.679C175.621 36.6181 175.322 35.7823 174.723 35.1715C174.123 34.5607 173.314 34.2521 172.288 34.2521C171.077 34.2714 170.114 34.6893 169.407 35.4994C168.699 36.3095 168.342 37.3511 168.342 38.6177V46.0761H164.703V25.032H168.342V33.7956C169.369 31.8088 171.172 30.7994 173.747 30.7608C175.456 30.7608 176.813 31.2816 177.801 32.336ZM156.608 34.0206C155.397 34.0206 154.409 34.4385 153.657 35.2679C152.905 36.1038 152.523 37.1775 152.523 38.502C152.523 39.8651 152.905 40.9581 153.657 41.794C154.416 42.6234 155.397 43.0413 156.615 43.0413C158.406 43.0413 159.751 42.4433 160.649 41.2539L162.918 43.157C162.249 44.1407 161.331 44.9252 160.261 45.4267C159.158 45.9539 157.883 46.2175 156.424 46.2175C154.951 46.2175 153.638 45.896 152.491 45.2531C151.363 44.6294 150.432 43.6842 149.82 42.5462C149.183 41.3825 148.864 40.0451 148.864 38.5342C148.864 37.0039 149.189 35.6473 149.833 34.4771C150.451 33.3262 151.388 32.3875 152.523 31.7574C153.67 31.1144 154.989 30.7929 156.487 30.7929C157.851 30.7929 159.069 31.0308 160.139 31.5131C161.21 31.9953 162.083 32.6832 162.759 33.5705L160.547 35.6987C159.521 34.58 158.215 34.0206 156.608 34.0206ZM146.538 30.9023V46.0761H142.898V43.665C142.382 44.4751 141.662 45.1373 140.814 45.581C139.966 46.0246 138.991 46.2496 137.889 46.2496C136.467 46.2496 135.224 45.9217 134.147 45.2724C133.076 44.623 132.235 43.7035 131.642 42.5205C131.05 41.3375 130.75 39.9808 130.75 38.4506C130.75 36.9396 131.05 35.6023 131.649 34.4385C132.242 33.2748 133.083 32.3746 134.154 31.7317C135.224 31.0887 136.461 30.7672 137.863 30.7672C138.966 30.7672 139.947 30.9923 140.801 31.4359C141.656 31.8795 142.382 32.5354 142.898 33.3519V30.9151L146.538 30.9023ZM141.579 42.0318C142.344 41.286 142.784 40.2959 142.898 39.0678V37.9941C142.784 36.7596 142.35 35.7759 141.585 35.03C140.821 34.2842 139.852 33.9113 138.673 33.9113C137.423 33.9113 136.404 34.3421 135.62 35.2036C134.836 36.0652 134.434 37.1775 134.415 38.5342C134.434 39.8972 134.836 41.0031 135.62 41.8647C136.404 42.7262 137.423 43.157 138.673 43.157C139.845 43.157 140.814 42.7841 141.579 42.0318ZM127.085 32.8568C128.29 34.2392 128.889 36.1745 128.889 38.6692C128.889 39.1578 128.876 39.5307 128.863 39.7751H117.805C118.047 40.8552 118.544 41.6975 119.303 42.3147C120.055 42.932 120.985 43.2342 122.088 43.2342C122.84 43.2342 123.592 43.0863 124.287 42.7905C124.982 42.5076 125.606 42.0769 126.123 41.5303L128.079 43.6007C127.321 44.4429 126.39 45.0988 125.345 45.5295C124.274 45.986 123.082 46.2111 121.776 46.2111C120.246 46.2111 118.895 45.8896 117.728 45.2466C116.588 44.6294 115.644 43.6842 115.026 42.5398C114.389 41.376 114.076 40.0387 114.076 38.5277C114.076 37.0168 114.395 35.673 115.045 34.5028C115.67 33.3519 116.607 32.4003 117.748 31.7638C118.908 31.108 120.221 30.7865 121.693 30.7865C124.083 30.7865 125.881 31.4809 127.085 32.8568ZM125.562 37.3125C125.524 36.1938 125.16 35.3065 124.472 34.6443C123.784 33.982 122.866 33.6477 121.725 33.6477C120.66 33.6477 119.768 33.9756 119.048 34.625C118.328 35.2744 117.888 36.1681 117.716 37.3061H125.562V37.3125ZM110.118 31.5709C110.985 31.0501 111.998 30.7801 113.159 30.7608V34.3356C111.61 34.2392 110.373 34.6057 109.449 35.4287C108.525 36.2517 108.059 37.364 108.059 38.7592V46.0761H104.42V30.9023H108.059V33.8213C108.569 32.8376 109.251 32.0853 110.118 31.5709ZM101.692 45.1373C100.5 45.8767 99.2446 46.2432 97.938 46.2432C96.6505 46.2432 95.5924 45.8574 94.7766 45.0923C93.9544 44.3272 93.5465 43.1956 93.5465 41.7039V27.3531L97.1604 26.9159V31.5195H101.444V34.2135H97.1604V41.0546C97.1604 41.7554 97.2879 42.2505 97.5492 42.5398C97.8105 42.8355 98.1993 42.977 98.722 42.977C99.2828 42.977 99.9903 42.7712 100.851 42.3533L101.692 45.1373ZM86.803 30.9023H90.4169V39.4086C90.4169 44.3722 86.9942 46.2175 83.5206 46.2175C80.0469 46.2175 76.6305 44.3722 76.6305 39.4086V30.9023H80.2444V39.5372C80.2444 41.4403 81.6467 42.9834 83.5269 42.9834C85.4072 42.9834 86.8094 41.4403 86.8094 39.5372L86.803 30.9023ZM69.1414 27.3017C70.7029 28.1568 72.0032 29.4234 72.9083 30.9601C73.8261 32.5096 74.2786 34.2328 74.2786 36.1231C74.2786 38.0134 73.8197 39.7365 72.9083 41.2989C72.0032 42.8484 70.7029 44.1279 69.1414 45.0023C67.5416 45.9089 65.776 46.3654 63.832 46.3654C61.888 46.3654 60.1225 45.9089 58.5291 45.0023C56.9675 44.1279 55.6673 42.8484 54.7622 41.2989C53.8507 39.7365 53.3918 38.0134 53.3918 36.1231C53.3918 34.2328 53.8507 32.5096 54.7622 30.9601C55.6673 29.417 56.9675 28.1568 58.5291 27.3017C60.1225 26.4144 61.8944 25.9708 63.832 25.9708C65.776 25.9643 67.5479 26.408 69.1414 27.3017ZM60.5623 30.2657C59.5489 30.8444 58.7075 31.6867 58.1275 32.7025C57.5284 33.7377 57.2288 34.8757 57.2288 36.1231C57.2288 37.3704 57.5348 38.5149 58.1403 39.5565C58.7267 40.5788 59.568 41.4275 60.575 42.0254C61.5948 42.6298 62.6975 42.932 63.8958 42.932C65.0494 42.9384 66.1839 42.6234 67.1719 42.0254C68.1726 41.4275 68.9948 40.5788 69.5684 39.5565C70.1612 38.5084 70.4607 37.3254 70.448 36.1231C70.448 34.8757 70.1548 33.7377 69.5684 32.7025C69.0011 31.6931 68.1726 30.8508 67.1719 30.2657C66.1776 29.6742 65.0494 29.3656 63.8958 29.372C62.723 29.3656 61.5757 29.6742 60.5623 30.2657ZM25.9656 17.458C31.1219 17.458 38.9107 19.059 42.531 22.7303C43.4488 23.6625 44.6534 25.4821 44.6534 28.1568C44.6534 32.9018 40.8738 40.1866 36.7053 44.4172C34.551 46.6033 31.1219 49.458 26.5073 49.458C21.9947 49.458 18.5529 46.359 17.5586 45.3431C13.7343 41.4725 11 35.5958 11 30.1243C11 26.6652 11.9752 23.6433 14.4546 21.1293C16.7491 18.8082 20.7072 17.458 25.9656 17.458ZM32.3457 36.3931C34.0857 34.6314 34.5574 32.4582 34.5574 31.2623C34.5574 30.3943 34.3343 29.1277 33.2635 28.0411C31.6255 26.3758 29.8026 25.9065 27.8267 25.9065C25.3218 25.9065 23.6391 26.7102 22.5174 27.8418C21.6378 28.7419 20.8793 30.105 20.8793 32.0531C20.8793 33.9949 21.9055 35.8723 23.0145 37.0039C24.0471 38.0455 25.666 38.8171 27.2913 38.8171C28.923 38.8171 30.6057 38.1548 32.3457 36.3931Z" fill="#161616"/>
</g>
<defs>
<clipPath id="clip0_403_684">
<rect width="169" height="48" fill="white" transform="translate(11 12)"/>
</clipPath>
</defs>
</svg>
