<svg width="190" height="72" viewBox="0 0 190 72" fill="none" xmlns="http://www.w3.org/2000/svg">
<path fill-rule="evenodd" clip-rule="evenodd" d="M154.957 42.9808C155.033 43.8503 155.729 44.9572 156.934 44.9572H157.639C157.913 44.9572 158.137 44.7332 158.137 44.4597V28.9539H158.133C158.12 28.6927 157.904 28.4835 157.639 28.4835H155.455C155.19 28.4835 154.974 28.6927 154.961 28.9539H154.957V30.2139C153.619 28.564 151.508 27.8792 149.392 27.8792C144.582 27.8792 140.683 31.7816 140.683 36.5958C140.683 41.4103 144.582 45.3128 149.392 45.3128C151.508 45.3128 153.815 44.4916 154.957 42.9789V42.9808ZM149.4 42.2622C146.341 42.2622 143.861 39.7255 143.861 36.5958C143.861 33.4667 146.341 30.93 149.4 30.93C152.461 30.93 154.94 33.4667 154.94 36.5958C154.94 39.7255 152.461 42.2622 149.4 42.2622Z" fill="#161616"/>
<path fill-rule="evenodd" clip-rule="evenodd" d="M137.92 35.4905C137.92 30.9677 135.069 27.9165 130.522 27.9165C128.352 27.9165 126.573 29.1725 125.945 30.2514C125.809 29.4078 125.361 28.521 123.973 28.521H123.266C122.992 28.521 122.769 28.7452 122.769 29.0187V43.0196C122.769 43.02 122.769 43.0211 122.769 43.0218V44.5257H122.772C122.786 44.7865 123.002 44.996 123.266 44.996H125.451C125.484 44.996 125.517 44.992 125.549 44.9858C125.563 44.983 125.577 44.9773 125.591 44.9733C125.607 44.9683 125.624 44.9645 125.639 44.9581C125.659 44.9501 125.677 44.9393 125.695 44.9291C125.703 44.9237 125.713 44.9199 125.721 44.9143C125.743 44.9002 125.763 44.8832 125.782 44.866C125.786 44.8628 125.789 44.8606 125.793 44.8577C125.814 44.8366 125.834 44.8135 125.852 44.7894C125.906 44.7143 125.94 44.6233 125.945 44.5257H125.948V35.3661C125.948 32.937 127.916 30.9677 130.343 30.9677C132.771 30.9677 134.738 32.937 134.738 35.3661L134.74 43.0223L134.741 43.0196C134.741 43.0264 134.742 43.0333 134.742 43.0406V44.5257H134.745C134.759 44.7865 134.975 44.996 135.239 44.996H137.424C137.458 44.996 137.49 44.992 137.522 44.9858C137.535 44.9835 137.547 44.9782 137.56 44.9747C137.577 44.9695 137.596 44.965 137.613 44.9581C137.631 44.9507 137.647 44.9404 137.664 44.9308C137.674 44.9251 137.685 44.9208 137.695 44.9143C137.715 44.901 137.734 44.8849 137.752 44.8691C137.756 44.8648 137.762 44.8616 137.766 44.8573C137.787 44.8373 137.805 44.8157 137.822 44.7931C137.823 44.7914 137.825 44.79 137.826 44.7883C137.88 44.7139 137.913 44.624 137.918 44.527C137.918 44.5263 137.918 44.5257 137.918 44.5257H137.921L137.92 35.4905Z" fill="#161616"/>
<path fill-rule="evenodd" clip-rule="evenodd" d="M115.168 42.9808C115.245 43.8503 115.94 44.9571 117.145 44.9571H117.85C118.124 44.9571 118.347 44.7331 118.347 44.4596V28.9539H118.344C118.33 28.6927 118.114 28.4835 117.85 28.4835H115.666C115.401 28.4835 115.186 28.6927 115.171 28.9539H115.168V30.2139C113.83 28.564 111.719 27.8792 109.603 27.8792C104.793 27.8792 100.894 31.7816 100.894 36.5959C100.894 41.4103 104.793 45.3129 109.603 45.3129C111.719 45.3129 114.026 44.4917 115.168 42.9788L115.168 42.9808ZM109.612 42.2621C106.553 42.2621 104.072 39.7255 104.072 36.5959C104.072 33.4667 106.553 30.93 109.612 30.93C112.671 30.93 115.151 33.4667 115.151 36.5959C115.151 39.7255 112.671 42.2621 109.612 42.2621Z" fill="#161616"/>
<path fill-rule="evenodd" clip-rule="evenodd" d="M87.9744 40.76C89.4328 41.7712 91.0247 42.2623 92.5545 42.2623C94.0119 42.2623 95.5186 41.5062 95.5186 40.19C95.5186 38.433 92.2355 38.1596 90.1728 37.458C88.1096 36.7564 86.3327 35.306 86.3327 32.9573C86.3327 29.3633 89.5325 27.8789 92.5191 27.8789C94.4114 27.8789 96.3638 28.5034 97.6296 29.3979C98.0655 29.7285 97.8 30.108 97.8 30.108L96.5918 31.8351C96.456 32.0296 96.2185 32.1977 95.8777 31.9871C95.5368 31.7767 94.3412 30.9298 92.5191 30.9298C90.6969 30.9298 89.5993 31.772 89.5993 32.8158C89.5993 34.0675 91.0258 34.4612 92.6968 34.8878C95.6087 35.6733 98.7852 36.6175 98.7852 40.19C98.7852 43.3566 95.8255 45.3136 92.5545 45.3136C90.0757 45.3136 87.9653 44.6064 86.1953 43.3065C85.8265 42.9372 86.084 42.5942 86.084 42.5942L87.2864 40.876C87.5311 40.5547 87.8395 40.6667 87.9744 40.76Z" fill="#161616"/>
<path fill-rule="evenodd" clip-rule="evenodd" d="M79.5757 42.9808C79.652 43.8503 80.3476 44.9571 81.5525 44.9571H82.2576C82.5309 44.9571 82.7549 44.7331 82.7549 44.4596V28.9539H82.7518C82.7375 28.6927 82.5217 28.4835 82.2576 28.4835H80.0729C79.8087 28.4835 79.5929 28.6927 79.5783 28.9539H79.5757V30.2139C78.2371 28.564 76.1268 27.8792 74.0106 27.8792C69.2003 27.8792 65.3008 31.7816 65.3008 36.5959C65.3008 41.4103 69.2003 45.3129 74.0106 45.3129C76.1268 45.3129 78.4331 44.4917 79.5753 42.9788L79.5757 42.9808ZM74.0191 42.2621C70.9598 42.2621 68.4796 39.7255 68.4796 36.5959C68.4796 33.4667 70.9598 30.93 74.0191 30.93C77.0783 30.93 79.5582 33.4667 79.5582 36.5959C79.5582 39.7255 77.0783 42.2621 74.0191 42.2621Z" fill="#161616"/>
<path fill-rule="evenodd" clip-rule="evenodd" d="M53.0895 37.1881C49.8525 37.1881 47.2282 39.8123 47.2282 43.0497C47.2282 46.2868 49.8525 48.911 53.0895 48.911C56.3267 48.911 58.9509 46.2868 58.9509 43.0497C58.9509 39.8123 56.3267 37.1881 53.0895 37.1881ZM37.8613 37.1886C34.6242 37.1886 32 39.8123 32 43.0497C32 46.2868 34.6242 48.911 37.8613 48.911C41.0986 48.911 43.723 46.2868 43.723 43.0497C43.723 39.8123 41.0986 37.1886 37.8613 37.1886ZM51.3367 29.8612C51.3367 33.0986 48.7126 35.7231 45.4755 35.7231C42.2382 35.7231 39.6141 33.0986 39.6141 29.8612C39.6141 26.6245 42.2382 24 45.4755 24C48.7126 24 51.3367 26.6245 51.3367 29.8612Z" fill="#161616"/>
</svg>
