<svg width="190" height="72" viewBox="0 0 190 72" fill="none" xmlns="http://www.w3.org/2000/svg">
<g clip-path="url(#clip0_403_681)">
<path d="M20.7494 42.5281C20.4495 41.6186 20.3008 40.4707 20.3008 38.9272C20.3008 37.3831 20.4495 36.2328 20.7494 35.3257C21.587 32.7229 23.806 31.3008 26.7115 31.3008C28.8693 31.3008 30.5778 32.1787 31.7176 33.5711C31.8057 33.6913 31.8355 33.8727 31.6873 33.9934L29.8002 35.6582C29.6497 35.7801 29.5004 35.7498 29.3797 35.5987C28.6598 34.7821 27.9109 34.3271 26.7121 34.3271C25.4241 34.3271 24.436 34.9629 24.0154 36.234C23.7774 36.962 23.7162 37.8084 23.7162 38.9278C23.7162 40.0472 23.7768 40.9245 24.0154 41.6513C24.4354 42.8909 25.4241 43.5267 26.7121 43.5267C27.9109 43.5267 28.6598 43.0723 29.3797 42.2574C29.5004 42.104 29.6497 42.104 29.8002 42.2253L31.6873 43.8901C31.8355 44.0109 31.8057 44.1625 31.7176 44.3142C30.5784 45.6768 28.8698 46.5536 26.7115 46.5536C23.806 46.5524 21.587 45.1291 20.7494 42.5281Z" fill="#161616"/>
<path d="M86.222 42.5281C85.9222 41.6186 85.7734 40.4707 85.7734 38.9272C85.7734 37.3831 85.9222 36.2328 86.222 35.3257C87.0614 32.7229 89.2781 31.3008 92.1836 31.3008C94.3419 31.3008 96.0511 32.1787 97.1891 33.5711C97.2784 33.6913 97.3093 33.8727 97.1582 33.9934L95.2706 35.6582C95.1206 35.7801 94.9719 35.7498 94.8517 35.5987C94.1331 34.7821 93.3835 34.3271 92.1836 34.3271C90.8962 34.3271 89.9069 34.9629 89.4881 36.234C89.2477 36.962 89.1894 37.8084 89.1894 38.9278C89.1894 40.0472 89.2477 40.9245 89.4881 41.6513C89.9069 42.8909 90.8962 43.5267 92.1836 43.5267C93.3835 43.5267 94.1331 43.0723 94.8517 42.2574C94.9719 42.104 95.1212 42.104 95.2706 42.2253L97.1582 43.8901C97.3093 44.0109 97.2784 44.1625 97.1891 44.3142C96.0511 45.6768 94.3419 46.5536 92.1836 46.5536C89.2781 46.5524 87.0614 45.1291 86.222 42.5281Z" fill="#161616"/>
<path d="M161.894 46.2205C161.714 46.2205 161.595 46.1003 161.595 45.9172V37.505C161.595 35.6285 160.665 34.3265 158.866 34.3265C157.129 34.3265 156.11 35.6279 156.11 37.505V45.9172C156.11 46.0997 155.989 46.2205 155.811 46.2205H153.053C152.873 46.2205 152.753 46.1003 152.753 45.9172V37.505C152.753 35.6285 151.824 34.3265 150.028 34.3265C148.29 34.3265 147.27 35.6279 147.27 37.505V45.9172C147.27 46.0997 147.15 46.2205 146.97 46.2205H144.213C144.032 46.2205 143.914 46.1003 143.914 45.9172V31.936C143.914 31.754 144.032 31.6327 144.213 31.6327H146.97C147.15 31.6327 147.27 31.754 147.27 31.936V32.9953H147.3C147.93 32.0871 149.188 31.3008 151.105 31.3008C152.814 31.3008 154.192 31.9955 155.06 33.2368H155.091C156.199 32.0276 157.638 31.3008 159.706 31.3008C163.061 31.3008 164.95 33.6002 164.95 36.7175V45.9166C164.95 46.0997 164.829 46.2205 164.649 46.2205H161.894Z" fill="#161616"/>
<path d="M169.114 51.6657C168.935 51.6657 168.815 51.5444 168.815 51.3618V48.9416C168.815 48.7608 168.935 48.6377 169.114 48.6377H169.654C170.792 48.6377 171.363 48.1255 171.812 46.914L172.232 45.6732L166.957 31.9342C166.897 31.7522 167.017 31.6309 167.198 31.6309H170.164C170.343 31.6309 170.464 31.7522 170.522 31.9342L173.79 41.4669H173.849L176.966 31.9342C177.026 31.7522 177.146 31.6309 177.324 31.6309H180.17C180.352 31.6309 180.472 31.7522 180.41 31.9342L174.898 47.1257C173.64 50.5761 172.44 51.6646 170.044 51.6646L169.114 51.6657Z" fill="#161616"/>
<path d="M34.4756 42.5281C34.146 41.4973 33.9961 40.5296 33.9961 38.926C33.9961 37.3248 34.146 36.3559 34.4756 35.3292C35.2847 32.7871 37.5001 31.3037 40.436 31.3037C43.341 31.3037 45.5576 32.7865 46.3667 35.3292C46.6945 36.3559 46.8456 37.3248 46.8456 38.926C46.8456 40.5296 46.6945 41.4973 46.3667 42.5281C45.557 45.0684 43.341 46.5507 40.436 46.5507C37.5001 46.5513 35.2847 45.069 34.4756 42.5281ZM43.1316 41.6204C43.3719 40.865 43.4314 40.1679 43.4314 38.9266C43.4314 37.6888 43.3719 37.0221 43.1316 36.2363C42.7127 35.0271 41.7835 34.3294 40.436 34.3294C39.0891 34.3294 38.129 35.0271 37.7107 36.2363C37.4721 37.0226 37.4115 37.6888 37.4115 38.9266C37.4115 40.1679 37.4721 40.865 37.7107 41.6204C38.129 42.832 39.0897 43.5255 40.436 43.5255C41.7835 43.525 42.7127 42.8314 43.1316 41.6204Z" fill="#161616"/>
<path d="M105.218 31.3008C102.851 31.3008 101.263 31.8754 100.094 32.7229C99.9755 32.8151 99.9446 32.9644 100.036 33.1155L101.141 35.114C101.234 35.2656 101.412 35.296 101.563 35.1746C102.252 34.631 103.24 34.1754 104.859 34.1754C107.22 34.1754 108.021 34.8917 108.062 36.4661H108.063V36.4854C108.064 36.5221 108.064 36.5595 108.064 36.5985V41.32C108.064 42.9842 106.926 43.7997 104.859 43.7997C103.24 43.7997 102.372 43.1959 102.372 41.9861C102.372 40.6235 103.331 40.0168 105.488 40.0168L106.143 40.018C106.323 40.018 106.444 39.8967 106.444 39.7164V37.7763C106.444 37.5954 106.323 37.4747 106.143 37.4747H105.999L104.949 37.4741C101.384 37.4741 99.1641 38.9289 99.1641 42.1045C99.1641 45.1618 101.384 46.553 104.019 46.553C106.055 46.553 107.404 45.8577 108.094 44.859H108.123V45.9183C108.123 46.1003 108.244 46.2217 108.423 46.2217H110.94C111.12 46.2217 111.24 46.1009 111.24 45.9183V36.3856C111.241 32.8151 109.623 31.3008 105.218 31.3008Z" fill="#161616"/>
<path d="M69.4188 37.4724C69.3406 37.4724 69.2893 37.5243 69.2893 37.6024V37.6888V37.9419V39.5449V39.7602V39.8844C69.2893 39.9626 69.3406 40.0151 69.4188 40.0151H69.4935H76.8387C77.0487 40.0151 77.1689 39.8949 77.1689 39.7147C77.1689 37.3522 77.0178 36.353 76.6894 35.3251C75.8792 32.8437 73.7226 31.3008 70.7558 31.3008C67.8794 31.3008 65.6628 32.783 64.8525 35.3251C64.5545 36.2631 64.373 37.4135 64.373 38.9266C64.373 40.4397 64.583 41.5586 64.8846 42.4977C65.6931 45.0387 67.8497 46.5518 70.9057 46.5518C73.5715 46.5518 75.6108 45.5228 76.8381 44.0704C76.9571 43.9199 76.9571 43.7688 76.8078 43.6463L75.0415 42.0731C74.8904 41.9523 74.7411 41.9838 74.5906 42.1337C73.8725 42.9212 72.8237 43.5261 71.2055 43.5261C69.5891 43.5261 68.4493 42.7398 67.9698 41.3182C67.8975 41.1193 67.8374 40.9105 67.7995 40.6836H67.7989C67.6898 40.0676 67.6257 39.4679 67.6257 38.5871C67.649 37.757 67.6968 37.2268 67.8147 36.553C67.8158 36.5437 67.8176 36.5355 67.8193 36.5268C67.8205 36.5198 67.8217 36.5145 67.8228 36.5075V36.5081C67.8514 36.3495 67.8905 36.2001 67.9389 36.0514C68.3286 34.8713 69.4071 34.1754 70.7867 34.1754C72.1354 34.1754 73.2122 34.8713 73.6018 36.0514C73.7226 36.4165 73.7815 36.7776 73.7815 37.2933C73.7815 37.414 73.722 37.4735 73.6018 37.4735H69.665L69.6656 37.4729L69.4188 37.4724Z" fill="#161616"/>
<path d="M61.5897 25.6426H58.8376C58.6561 25.6426 58.5366 25.7633 58.5366 25.943V33.0135V38.8607C58.5366 38.8765 58.5366 38.8922 58.5366 38.9074C58.5366 38.9232 58.5366 38.9389 58.5366 38.9541V39.7305H58.5214C58.4893 40.5646 58.3989 41.113 58.2385 41.6269C57.8494 42.8344 56.9202 43.4988 55.5453 43.4988C54.1989 43.4988 53.272 42.8344 52.8812 41.6269C52.6724 40.9613 52.5837 40.2368 52.5837 38.9074C52.5837 37.5786 52.6724 36.8523 52.8812 36.1891C53.2645 35.0044 54.1616 34.3353 55.4636 34.309H56.6384C56.6956 34.295 56.7329 34.2501 56.7329 34.1848L56.7481 31.4222C56.7481 31.3516 56.7037 31.3043 56.6384 31.2962L55.7004 31.2927H54.5979V31.2933C52.1859 31.3189 50.4202 32.4949 49.6805 34.7961C49.3212 35.9155 49.1719 36.9445 49.1719 38.9074C49.1719 40.8709 49.3212 41.8987 49.6805 43.0158C50.4283 45.3432 52.2238 46.5216 54.6767 46.5216C56.6227 46.5216 57.8196 45.7976 58.5062 44.799H58.5354V45.8869C58.5354 46.0689 58.6556 46.1896 58.8364 46.1896H61.5885C61.7682 46.1896 61.8883 46.0695 61.8883 45.8869V25.943C61.8895 25.7627 61.7693 25.6426 61.5897 25.6426Z" fill="#161616"/>
<path d="M133.739 37.4724C133.662 37.4724 133.609 37.5243 133.609 37.6024V37.6888V37.9419V39.5449V39.7602V39.8844C133.609 39.9626 133.662 40.0151 133.739 40.0151H133.815H141.16C141.37 40.0151 141.49 39.8949 141.49 39.7147C141.49 37.3522 141.34 36.353 141.011 35.3251C140.201 32.8437 138.044 31.3008 135.078 31.3008C132.201 31.3008 129.985 32.783 129.174 35.3251C128.876 36.2631 128.695 37.4135 128.695 38.9266C128.695 40.4397 128.905 41.5586 129.206 42.4977C130.014 45.0387 132.171 46.5518 135.227 46.5518C137.893 46.5518 139.933 45.5228 141.16 44.0704C141.279 43.9199 141.279 43.7688 141.13 43.6463L139.363 42.0731C139.213 41.9523 139.063 41.9838 138.913 42.1337C138.195 42.9212 137.147 43.5261 135.527 43.5261C133.911 43.5261 132.772 42.7398 132.292 41.3182C132.22 41.1193 132.159 40.9105 132.122 40.6836C132.012 40.0676 131.948 39.4679 131.948 38.5871C131.97 37.757 132.018 37.2268 132.136 36.553C132.139 36.5437 132.14 36.5355 132.141 36.5268C132.142 36.5198 132.143 36.5145 132.145 36.5075V36.5081C132.174 36.3495 132.213 36.2001 132.261 36.0514C132.65 34.8713 133.729 34.1754 135.109 34.1754C136.458 34.1754 137.535 34.8713 137.924 36.0514C138.044 36.4165 138.104 36.7776 138.104 37.2933C138.104 37.414 138.044 37.4735 137.924 37.4735H133.987V37.4729L133.739 37.4724Z" fill="#161616"/>
<path d="M126.051 25.6426H123.294C123.114 25.6426 122.994 25.7639 122.994 25.9436V33.024V38.8806V38.9266V38.9739V39.7515H122.979C122.946 40.5868 122.855 41.1357 122.695 41.6502C122.305 42.86 121.374 43.5262 119.998 43.5262C118.651 43.5262 117.722 42.86 117.331 41.6502C117.122 40.9834 117.031 40.2584 117.031 38.9266C117.031 37.5961 117.121 36.8681 117.331 36.2043C117.714 35.0178 118.613 34.354 119.917 34.3277L121.094 34.3283C121.274 34.3283 121.394 34.2075 121.394 34.0273V31.6024C121.394 31.4216 121.274 31.3008 121.094 31.3008H120.95L119.171 31.3003C119.157 31.3003 119.143 31.3003 119.13 31.3003C119.116 31.3003 119.104 31.3003 119.091 31.3003H119.05V31.3008C116.635 31.3259 114.867 32.5042 114.126 34.809C113.766 35.9301 113.617 36.9597 113.617 38.9255C113.617 40.8919 113.766 41.922 114.126 43.0408C114.875 45.3706 116.674 46.5513 119.13 46.5513C121.079 46.5513 122.277 45.8268 122.966 44.8264H122.995V45.9155C122.995 46.0986 123.115 46.2188 123.296 46.2188H126.053C126.232 46.2188 126.353 46.0992 126.353 45.9155V25.9436C126.351 25.7633 126.23 25.6426 126.051 25.6426Z" fill="#161616"/>
<path d="M85.998 50.3457V53.1031C85.998 53.2845 86.1181 53.4047 86.2984 53.4047H96.516C96.6986 53.4047 96.8193 53.2839 96.8193 53.1031V50.3457C96.8193 50.1666 96.6986 50.0459 96.516 50.0459H86.2984C86.1181 50.0459 85.998 50.1666 85.998 50.3457Z" fill="#161616"/>
<path d="M83.4035 18.5017C83.3988 18.497 83.3959 18.4912 83.3918 18.4871C83.3912 18.4865 83.3906 18.4865 83.3906 18.4865C83.3381 18.4346 83.2635 18.4043 83.1748 18.4043H83.1713H14.301C14.2782 18.4043 14.2567 18.4066 14.2357 18.4101C14.2298 18.4113 14.2246 18.4136 14.2182 18.4148C14.2047 18.4183 14.1902 18.4212 14.1779 18.4265C14.1756 18.427 14.1738 18.4282 14.1721 18.4294C14.0653 18.4731 14 18.5729 14 18.7047V18.7059V53.0988V53.1011C14 53.2061 14.0408 53.2883 14.1097 53.3408C14.1149 53.3461 14.1196 53.3507 14.1266 53.3542V53.3548C14.1744 53.3852 14.2327 53.4015 14.301 53.4015H83.1707H83.1742C83.2757 53.4015 83.358 53.3624 83.4099 53.2953C83.4507 53.2452 83.4746 53.1792 83.4746 53.1005V53.0982V18.7059V18.7047C83.4746 18.6225 83.4484 18.553 83.4035 18.5017ZM17.6551 50.0445C17.6335 50.0445 17.6125 50.0427 17.5939 50.0398C17.588 50.0386 17.5816 50.0357 17.5758 50.034C17.5618 50.031 17.5478 50.0281 17.535 50.0229C17.5326 50.0223 17.5315 50.0205 17.5291 50.02C17.423 49.9768 17.3582 49.8776 17.3576 49.747V24.818V22.0617C17.3576 21.9293 17.423 21.8308 17.5291 21.7864C17.532 21.7858 17.5338 21.7841 17.5355 21.7835C17.5478 21.7788 17.5875 21.7689 17.5939 21.7672C17.6137 21.7643 17.6347 21.7625 17.6563 21.7625H79.8178C79.8399 21.7625 79.8604 21.7643 79.8802 21.7672C79.8866 21.7689 79.8924 21.7713 79.8977 21.773C79.9117 21.7759 79.9257 21.7788 79.9385 21.7841C79.9414 21.7847 79.9426 21.7864 79.9449 21.787C80.0517 21.8308 80.1164 21.9299 80.1164 22.0623V49.7475C80.1159 49.8788 80.0505 49.978 79.9455 50.0211C79.9432 50.0217 79.942 50.0235 79.9391 50.024C79.9269 50.0287 79.9123 50.0322 79.8989 50.0351C79.8924 50.0369 79.8872 50.0398 79.8808 50.041C79.8609 50.0445 79.8417 50.0456 79.8201 50.0456H17.6551V50.0445Z" fill="#161616"/>
</g>
<defs>
<clipPath id="clip0_403_681">
<rect width="167" height="48" fill="white" transform="translate(14 12)"/>
</clipPath>
</defs>
</svg>
